<svg viewBox="0 0 512 512" xmlns="http://www.w3.org/2000/svg"><path d="M101.6 199c-2.2 0-3.9-1.8-3.9-3.9 0-2.2 1.7-3.9 3.9-3.9l217.7-.7c2.2 0 3.9 1.8 3.9 3.9 0 2.2-1.7 3.9-3.9 3.9l-217.7.7zm-2.2 28c-2.2 0-3.9-1.7-3.9-3.9s1.7-3.9 3.9-4l217.7-1.5c2.2 0 3.9 1.7 3.9 3.9s-1.7 3.9-3.9 4L99.4 227z"/><path d="M340.3 280.1h-1l-1.6-.1c-12.5-.5-22.3-10.7-22.4-23.2 0-28.6-.1-67.4 0-90.2 0-5.9 2.3-11.4 6.5-15.5 4.1-4 9.5-6.2 15.2-6.2h.4l4.5.1c11.7.2 21.3 9.9 21.3 21.7l.2 90.1c0 6.4-2.5 12.4-7.1 16.8-4.3 4.2-10 6.5-16 6.5zm-3.2-127.3c-3.6 0-7.1 1.4-9.7 4-2.7 2.6-4.2 6.1-4.2 9.9v90.2c0 8.3 6.5 15 14.8 15.4l1.6.1c4.2.2 8.2-1.4 11.3-4.3 3.1-2.9 4.7-6.9 4.7-11.1l-.2-90.1c0-7.5-6.1-13.7-13.6-13.8l-4.5-.1c0-.2-.1-.2-.2-.2z"/><path d="M377 256.2h-1.8c-9.2-.4-16.4-7.9-16.4-17.1v-61.3c0-4.3 1.7-8.4 4.8-11.4 3.1-3 7.2-4.7 11.5-4.6l3.1.1c8.6.2 15.7 7.3 15.7 16l.2 61.3c0 4.7-1.8 9.1-5.2 12.4-3.2 2.9-7.4 4.6-11.9 4.6zm-10.3-17.1c0 5 3.9 9 8.9 9.2h1.1c2.5.1 4.9-.8 6.8-2.6 1.8-1.8 2.8-4.1 2.8-6.7l-.2-61.3c0-4.4-3.6-8.1-8-8.1l-3.1-.1c-2.2 0-4.3.8-5.9 2.3-1.6 1.5-2.4 3.6-2.5 5.8.1 16.5.1 45 .1 61.5zM81.9 279.9h-.3l-4.5-.1c-11.7-.1-21.3-9.8-21.5-21.5l-.9-90.1c-.1-6.4 2.4-12.4 7-16.9 4.6-4.5 10.6-6.8 17-6.6l1.6.1c12.5.4 22.4 10.5 22.5 23.1.2 23.3.6 66 .7 90.2 0 5.9-2.2 11.4-6.4 15.5-4 4.1-9.4 6.3-15.2 6.3zM78 152.6c-4 0-7.8 1.5-10.8 4.4-3 3-4.7 6.9-4.6 11.2l.9 90.1c.1 7.5 6.2 13.6 13.7 13.7l4.5.1c3.7 0 7.3-1.4 9.9-4 2.7-2.6 4.1-6.2 4.1-9.9-.2-24.1-.5-66.8-.7-90.2-.1-8.3-6.6-15-14.9-15.3l-1.6-.1H78z"/><path d="M43.6 263.4h-3.3c-8.7-.1-15.8-7.2-15.8-15.9l-.6-61.3c0-4.7 1.8-9.1 5.1-12.4 3.4-3.3 7.8-5 12.5-4.9h1.1c9.2.3 16.5 7.7 16.5 16.9.1 16.4.4 45 .5 61.3 0 4.3-1.7 8.4-4.7 11.5-3 3.2-7 4.8-11.3 4.8zM41 176.8c-2.4 0-4.7.9-6.4 2.6-1.8 1.8-2.8 4.1-2.8 6.7l.6 61.3c0 4.4 3.7 8 8.1 8.1h3.2c2.2 0 4.2-.8 5.8-2.4 1.6-1.6 2.4-3.6 2.4-5.8-.1-16.3-.3-44.9-.5-61.3 0-5-4-9-8.9-9.1h-1.1c-.2-.1-.3-.1-.4-.1zm367.7 31.4c-.1 0-.1 0 0 0l-15.9-.3c-2.2 0-3.9-1.8-3.9-4s1.8-3.9 4-3.9l15.9.3c2.2 0 3.9 1.8 3.9 4-.1 2.2-1.9 3.9-4 3.9z"/><path d="M25.8 213.7l-15.9-.3c-2.2 0-3.9-1.8-3.9-4s1.8-3.9 4-3.9l15.9.3c2.2 0 3.9 1.8 3.9 4-.1 2.2-1.8 3.9-4 3.9zM195 286.2c-2.2 0-3.9-1.8-3.9-3.9 0-2.2 1.7-3.9 3.9-4l217.7-.7c2.2 0 3.9 1.8 3.9 3.9 0 2.2-1.7 3.9-3.9 4l-217.7.7zm-2.2 28c-2.2 0-3.9-1.7-3.9-3.9s1.7-3.9 3.9-4l217.7-1.5c2.2 0 3.9 1.7 4 3.9 0 2.2-1.7 3.9-3.9 4l-217.8 1.5c.1 0 .1 0 0 0z"/><path d="M433.7 367.3h-1l-1.6-.1c-12.5-.5-22.3-10.7-22.4-23.2 0-28.5-.1-67.3 0-90.2 0-5.9 2.3-11.4 6.5-15.5 4.1-4 9.5-6.2 15.2-6.2h.4l4.5.1c11.7.2 21.3 9.9 21.3 21.7l.2 90.1c0 6.4-2.5 12.4-7.1 16.8-4.3 4.2-10 6.5-16 6.5zM430.5 240c-3.6 0-7.1 1.4-9.7 4-2.7 2.6-4.2 6.1-4.2 9.9v90.2c0 8.3 6.5 15 14.8 15.4l1.6.1c4.2.2 8.2-1.4 11.3-4.3 3.1-2.9 4.7-6.9 4.7-11.1l-.2-90.1c0-7.5-6.1-13.7-13.6-13.8l-4.5-.1c0-.2-.1-.2-.2-.2z"/><path d="M470.4 343.3h-1.8c-9.2-.4-16.4-7.9-16.4-17.1v-61.3c0-4.3 1.7-8.4 4.8-11.4 3.1-3 7.2-4.7 11.5-4.6l3.1.1c8.6.2 15.7 7.3 15.7 16l.2 61.3c0 4.7-1.8 9.1-5.2 12.4-3.2 3-7.4 4.6-11.9 4.6zm-2.1-86.6c-2.1 0-4.2.8-5.7 2.3-1.6 1.5-2.4 3.6-2.4 5.8v61.3c0 5 3.9 9 8.9 9.2h1.1c2.5.1 4.9-.8 6.8-2.6 1.8-1.8 2.8-4.1 2.8-6.7l-.2-61.3c0-4.4-3.6-8.1-8-8.1l-3.1-.1c-.1.2-.2.2-.2.2zM175.3 367h-.3l-4.5-.1c-11.7-.1-21.3-9.8-21.5-21.5l-.9-90.1c-.1-6.4 2.4-12.4 7-16.9 4.6-4.5 10.6-6.8 17-6.6l1.6.1c12.5.4 22.4 10.5 22.5 23.1.2 23.3.6 66 .7 90.2 0 5.9-2.2 11.4-6.4 15.5-4 4.1-9.4 6.3-15.2 6.3zm-3.8-127.2c-4 0-7.8 1.5-10.8 4.4-3 3-4.7 6.9-4.6 11.2l.9 90.1c.1 7.5 6.2 13.6 13.7 13.7l4.5.1h.2c3.7 0 7.1-1.4 9.8-4 2.7-2.6 4.1-6.2 4.1-9.9-.2-24.1-.5-66.8-.7-90.2-.1-8.3-6.6-15-14.9-15.3l-1.6-.1h-.6z"/><path d="M137 350.6h-3.3c-8.7-.1-15.8-7.2-15.8-15.9l-.6-61.3c0-4.7 1.8-9.1 5.1-12.4 3.4-3.3 7.8-5 12.5-4.9h1.1c9.2.3 16.5 7.7 16.5 16.9.1 16.4.4 45 .5 61.3 0 4.3-1.7 8.4-4.7 11.5-3 3.1-7 4.8-11.3 4.8zm-2.6-86.6c-2.4 0-4.7.9-6.4 2.6-1.8 1.8-2.8 4.1-2.8 6.7l.6 61.3c0 4.4 3.7 8 8.1 8.1h3.1c2.2 0 4.3-.8 5.9-2.4 1.6-1.6 2.4-3.6 2.4-5.8-.1-16.3-.3-44.9-.5-61.3 0-5-4-9-8.9-9.1h-1.1c-.2-.1-.3-.1-.4-.1zm367.7 31.4c-.1 0-.1 0 0 0l-15.9-.3c-2.2 0-3.9-1.8-3.9-4s1.9-3.9 4-3.9l15.9.3c2.2 0 3.9 1.8 3.9 4-.1 2.2-1.9 3.9-4 3.9z"/><path d="M119.2 300.9l-15.9-.3c-2.2 0-3.9-1.8-3.9-4s1.8-3.9 3.9-3.9h.1l15.9.3c2.2 0 3.9 1.8 3.9 4-.1 2.2-1.8 3.9-4 3.9z"/></svg>