<svg height="100" width="100" xmlns="http://www.w3.org/2000/svg"><g fill="#ccc"><path d="M84.692 53.579a.283.283 0 01-.208-.475c4.643-5.016 4.974-5.022 5.115-5.025h.005c.076 0 .164.035.217.088.034.034.062.062.077.097 1.111-1.238 1.546-1.609 1.831-1.619.083 0 .203.044.259.1a.287.287 0 01.062.31l-1.231 2.96c.755-.755 1.811-1.859 2.377-2.451.874-.914.874-.914 1.003-.917h.005a.28.28 0 01.279.234c.56-.575.596-.575.718-.577a.263.263 0 01.206.084.283.283 0 01-.077.456c-.152.128-.751.753-1.013 1.027-.341.356-.338.352-.468.356a.284.284 0 01-.277-.238c-3.204 3.35-3.292 3.351-3.483 3.353-.075.015-.157-.031-.211-.086a.285.285 0 01-.062-.309l1.326-3.189a47.784 47.784 0 00-1.62 1.788c-.793.909-.809.926-.97.932a.284.284 0 01-.254-.433l.196-.321c-.96.959-2.337 2.405-3.595 3.765a.277.277 0 01-.207.09z"/><path d="M81.835 56.64c-.057 0-.094-.035-.139-.078-.212-.213-.428-.429 5.471-7.87-1.257 1.167-3.329 3.482-5.176 5.729a.284.284 0 01-.419.021c-.175-.174-.175-.174.661-2.203.289-.701.677-1.642.906-2.267-.795.727-2.424 2.408-4.863 5.021-.731.783-.731.783-.858.785-.063.013-.151-.027-.205-.083-.365-.364.061-1.109 1.946-3.876.56-.821 1.298-1.904 1.762-2.701-4.403 4.754-4.791 4.763-4.924 4.766-.056-.014-.174-.036-.229-.091-.138-.137-.415-.413 1.587-5.12-1.084 1.015-3.09 3.188-4.074 4.255-1.288 1.396-1.288 1.396-1.439 1.399a.336.336 0 01-.207-.084c-.129-.128-.21-.209.471-1.154-1.274 1.367-1.789 1.818-2.07 1.826h-.005a.39.39 0 01-.24-.097c-.136-.136-.378-.377 1.421-4.247-.406.404-.898.9-1.424 1.431-.747.784-1.666 1.72-2.756 2.807a.284.284 0 01-.476-.136.281.281 0 01-.18-.083c-.128-.127-.384-.382.92-2.611-1.178 1.27-2.291 2.343-2.699 2.359-.055-.008-.221-.048-.276-.104a.282.282 0 01-.037-.355c1.633-2.488 3.278-5.235 3.928-6.645-1.318 1.846-6.117 6.202-7.743 7.658a.282.282 0 01-.393-.013.286.286 0 01-.003-.393 536.48 536.48 0 011.497-1.585c-.04-.159.181-.443 1.101-1.63.479-.619 1.244-1.606 1.843-2.442l-4.534 4.534a.285.285 0 01-.385.016.285.285 0 01-.045-.383l2.65-3.64c-2.256 2.413-4.628 4.802-5.188 4.818a.527.527 0 01-.265-.102.281.281 0 01-.032-.362c2.443-3.508 4.906-7.439 5.226-8.569-.918.657-3.609 3.637-4.971 5.144-1.744 1.931-1.751 1.931-1.933 1.935a.287.287 0 01-.211-.084.282.282 0 01.084-.459c.179-.155.92-.977 1.639-1.772 3.328-3.684 5.013-5.44 5.587-5.455.09-.003.217.05.271.105.497.496-.964 3.252-4.345 8.2 1.59-1.476 4.542-4.622 7.183-7.581a.284.284 0 01.442.356l-3.546 4.871 3.319-3.319a.282.282 0 01.4 0c.271.271.121.733-1.365 2.733l3.544-3.544a.3.3 0 01.237-.081c.333-.265.413-.265.444-.256.076 0 .164.035.218.088.166.166.651.651-3.373 6.926.964-.942 2.42-2.547 3.729-4.087a.283.283 0 01.45.342c-.999 1.476-2.045 3.165-2.571 4.191l4.546-4.546a.282.282 0 01.4 0 .357.357 0 01.091.206.283.283 0 01.164.392c-.847 1.756-1.708 3.707-2.011 4.616.7-.642 2.084-2.17 3.152-3.351 2.69-2.973 3.262-3.536 3.598-3.544.079-.012.183.039.238.094a.283.283 0 01.005.396l-1.951 2.049a.292.292 0 01-.062.178l-.085.105c1.906-1.999 2.438-2.405 2.712-2.411.062-.012.186.04.241.095a.284.284 0 01.06.314c-.844 1.94-1.692 4.09-1.961 5.048.919-.816 3.126-3.125 5.079-5.256a.287.287 0 01.203-.092c.084.008.152.028.206.083.419.419-.115 1.359-2.169 4.373a70.182 70.182 0 00-1.332 2.003c4.435-4.736 5.007-5.126 5.282-5.131a.28.28 0 01.229.09c.198.199.196.332-1.049 3.353l-.133.323c1.783-2.104 4.694-5.379 5.573-5.422a.407.407 0 01.337.123.282.282 0 01.021.377c-1.521 1.907-3.635 4.611-5.009 6.469.6-.604 1.249-1.263 1.785-1.808a.284.284 0 01.404.398c-3.069 3.116-3.665 3.722-3.902 3.722zm-43.824 3.781a.278.278 0 01-.2-.083.501.501 0 01-.144-.37c.006-.773 1.625-2.522 4.382-5.234a.417.417 0 01-.169.047.449.449 0 01-.259-.102c-.292-.29-.081-.704 1.874-3.69.678-1.036 1.587-2.425 2.104-3.363l-.256.275c-3.817 4.099-4.571 4.763-4.903 4.768a.365.365 0 01-.231-.092.284.284 0 01-.017-.383 149.015 149.015 0 003.398-4.19c-2.171 2.31-4.177 4.32-4.594 4.329-.056-.009-.182-.038-.237-.093a.283.283 0 01-.022-.375c1.118-1.426 2.281-3.009 2.85-3.913-.964.879-2.799 2.853-4.437 4.73a.283.283 0 01-.429-.37c.767-.9 1.55-1.844 2.248-2.708-1.186 1.269-1.642 1.646-1.911 1.652a.423.423 0 01-.249-.098.281.281 0 01-.031-.363c.467-.663.957-1.374 1.316-1.914-.957.881-2.587 2.694-4.029 4.434a.283.283 0 01-.205.103.303.303 0 01-.214-.083c-.072-.071-.123-.123.001-.365l-.019-.016.082-.099c.333-.568 1.373-1.925 4.163-5.498-1.347 1.361-3.159 3.293-4.822 5.128a.284.284 0 01-.48-.276l1.025-3.224c-5.375 5.748-5.772 5.755-5.907 5.758a.335.335 0 01-.225-.09.284.284 0 01.181-.483c.602-.361 4.213-4.142 6.396-6.494a.28.28 0 01.351-.052.284.284 0 01.127.331l-1.015 3.19c2.745-3 5.761-6.155 6.317-6.169.076 0 .188.04.243.095a.283.283 0 01.023.375c-.708.905-1.529 1.958-2.332 2.992.454-.4.826-.657 1.042-.667a.403.403 0 01.3.111c.145.145.21.21-.524 1.314.509-.545 1.038-1.132 1.426-1.562 1.374-1.524 1.388-1.524 1.564-1.529a.303.303 0 01.213.084c.109.109.24.24-.426 1.235.364-.309.646-.496.797-.501a.405.405 0 01.26.099c.153.154.371.372-1.549 2.991a178.663 178.663 0 004.694-4.97.283.283 0 01.41-.009c.167.167.401.402-2.38 3.915.518-.55.997-1.063 1.343-1.436 1.167-1.253 1.167-1.253 1.31-1.256a.308.308 0 01.206.083c.405.405-.196 1.478-2.474 4.958-.59.901-1.284 1.961-1.643 2.602 1.391-1.134 5.137-5.085 8.443-8.771a.282.282 0 01.411-.011.514.514 0 01.146.377c-.008.967-2.53 3.478-6.682 7.5-1.967 1.905-4.456 4.315-5.674 5.779l13.697-13.696a.283.283 0 11.4.401L38.211 60.338a.28.28 0 01-.2.083zM14.955 41.056a.285.285 0 01-.201-.484l4.921-4.92c.11-.11.29-.111.4 0 .24.239.126.588-.768 1.848a.297.297 0 01.171.083c.116.116.117.28.092.642l.435-.435a.284.284 0 01.401.401l-.927.926a.283.283 0 01-.4 0c-.113-.113-.12-.258-.094-.654l-.259.284c-.91 1-1.014 1.082-1.192 1.086a.367.367 0 01-.218-.086c-.21-.211-.157-.283.739-1.491.146-.196.326-.439.511-.694l-3.412 3.412a.283.283 0 01-.199.082zm5.513-5.653a.283.283 0 01-.201-.484c1.497-1.508 2.174-2.189 2.503-2.498l.162-.167.012.011c.118-.098.147-.101.194-.098a.284.284 0 01.201.481c-.301.31-.611.636-.897.945a.285.285 0 01-.045.342l-1.216 1.215a.284.284 0 01-.371.026l-.14.141a.279.279 0 01-.202.086z"/><path d="M30.668 78.221a.522.522 0 01-.384-.148.282.282 0 01-.001-.399l.852-.864a.587.587 0 01-.123-.387c.002-.124.04-.271.111-.441-.81.61-1.45.94-1.912.958a.76.76 0 01-.617-.224.283.283 0 01-.001-.4c9.842-9.89 24.816-25.49 27.639-29.767-8.295 8.569-25.424 26.154-26.284 26.161-.071.015-.165-.034-.22-.089a.284.284 0 01-.006-.395L56.23 44.002c-1.984 1.268-8.515 7.449-26.592 27.202-1.864 2.037-1.864 2.037-2 2.039a.26.26 0 01-.206-.083c-.199-.198-.375-.374 5.826-8.198l-7.385 7.385a.283.283 0 01-.406-.395c5.199-5.466 10.366-11.558 10.73-13.058-1.45 1.169-7.639 7.58-11.507 11.674a.283.283 0 01-.414-.386c.87-.944 1.851-2.014 2.837-3.095l-2.71 2.709a.285.285 0 01-.397.004.284.284 0 01-.01-.397l2.275-2.429a.285.285 0 01-.112-.419 982.82 982.82 0 006.101-8.851l-9.224 9.224a.283.283 0 01-.402 0c-.182-.182-.537-.538 4.708-7.689l-.558.587c-4.431 4.662-5.147 5.326-5.464 5.33-.054.011-.167-.034-.222-.089a.282.282 0 01-.028-.367l7.029-9.62c-2.525 2.732-6.539 6.53-8.143 8.032l-.028-.029c-.22.166-.271.118-.367.022a.285.285 0 01.006-.407l.007-.007c.047-.045.296-.294.696-.692a.43.43 0 01-.118-.083.283.283 0 01-.017-.382c3.405-4.092 8.609-10.511 9.964-12.563-1.958 1.544-7.925 7.916-11.682 12.077a.284.284 0 01-.435-.364c3.218-4.183 8.982-11.687 10.54-13.749-.437.282-1.113.878-1.95 1.698a.284.284 0 01.154.483l-.641.625c-1.093 1.084-3.457 3.45-5.854 5.854l-.494.515c-.471.552-.94 1.107-1.403 1.663a.285.285 0 01-.205.102.347.347 0 01-.141-.03l-2.412 2.421a.283.283 0 01-.2.083.279.279 0 01-.2-.083c-.362-.361-.024-.858 5.005-6.27 2.629-2.829 6.515-7.009 7.013-8.149-1.329.675-6.775 6.464-11.52 11.907a.285.285 0 01-.204.097c-.081-.007-.155-.026-.21-.083-.263-.263-.372-.371 4.154-5.461a473.725 473.725 0 00-4.948 5.168.28.28 0 01-.202.089.372.372 0 01-.205-.083c-.367-.367.087-1.028 3.737-5.443 1.447-1.75 3.417-4.132 4.427-5.606-3.067 3.33-7.26 7.75-7.923 7.764a.415.415 0 01-.246-.096.338.338 0 01-.085-.166c-.523.546-1.03 1.077-1.509 1.58a.284.284 0 01-.425-.376l7.766-9.425c-2.015 1.935-5.383 5.514-8.435 8.903a.282.282 0 01-.203.094.313.313 0 01-.208-.083c-.306-.306-.209-.493 3.318-4.332 2.057-2.239 5.712-6.217 6.289-7.531-1.433 1.182-6.514 6.487-9.703 9.9a.283.283 0 01-.436-.36l6.093-8.429c-.478.543-.982 1.14-1.4 1.636-1.918 2.272-2.745 3.2-3.209 3.22a.385.385 0 01-.287-.109.284.284 0 01-.036-.357c1.925-2.906 3.951-6.094 4.998-7.916-2.832 3.058-6.582 6.985-7.167 6.998a.343.343 0 01-.24-.094c-.565-.567.626-2.013 5.325-7.054 2.088-2.241 5.337-5.727 6.232-7.271-2.917 3.203-9.73 10.573-10.694 10.597a.496.496 0 01-.265-.102.283.283 0 01-.008-.392c.81-.882 1.69-1.843 2.595-2.833a.873.873 0 01-.297.075.466.466 0 01-.368-.137c-.185-.185-.471-.471 4.37-6.339l-5.814 5.814a.293.293 0 01-.401 0c-.277-.276-.288-.287 3.676-4.713l.382-.427c-.931.998-1.479 1.461-1.807 1.473a.385.385 0 01-.291-.11.284.284 0 01-.061-.31c-.751.763-1.479 1.504-2.149 2.188-.054.055-.132.093-.203.085a.287.287 0 01-.201-.083c-.652-.652 1.021-2.954 6.057-9.112.66-.808 1.331-1.628 1.865-2.301-2.032 1.956-5.779 5.882-8.298 8.581a.282.282 0 01-.4.014.282.282 0 01-.014-.4c4.229-4.531 9.401-9.933 10.022-9.944.08-.013.175.037.23.091.284.284.219.422-2.967 4.318-1.806 2.208-4.899 5.99-5.813 7.658 10.21-10.409 10.381-10.409 10.534-10.41h.001c.075 0 .149.03.203.083a.435.435 0 01.101.254c-.001.222-.383.766-.994 1.496.213.313-.179.949-4.399 5.693l5.076-5.077a.284.284 0 01.416.386c-3.051 3.559-7.82 9.305-8.558 10.647 1.158-.522 5.662-5.691 7.646-7.968 1.974-2.266 1.986-2.266 2.177-2.272a.275.275 0 01.215.084c.069.069.125.125-.073.433l.006.01a.332.332 0 00-.027.022c-.496.749-2.372 2.878-8.534 9.613 2.291-2.336 5.174-5.439 7.279-7.763a.28.28 0 01.41-.01c.801.801-1.347 3.28-6.44 8.745-2.02 2.167-4.458 4.785-5.127 5.894 1.352-1.149 5.166-5.184 7.576-7.813a.284.284 0 01.203-.092c.095.014.152.028.207.083.181.181.476.477-4.652 8.31.506-.567 1.077-1.244 1.564-1.821 1.971-2.336 2.887-3.362 3.387-3.383a.45.45 0 01.298.112c.098.099.11.254.029.367l-4.95 6.848c3.529-3.715 6.884-7.105 7.379-7.114a.432.432 0 01.231.092c.398.398-.031 1.299-1.502 3.118.956-.893 1.679-1.473 1.953-1.48a.55.55 0 01.267.103.284.284 0 01.019.381l-4.562 5.538c4.499-4.635 6.946-6.979 7.293-6.984a.384.384 0 01.22.088.283.283 0 01-.001.402c-.482.478-1.001.996-1.542 1.537a.282.282 0 01.114.07c.551.551-.719 2.283-5.083 7.56-.556.672-1.157 1.4-1.712 2.084 4.608-4.831 7.131-7.278 7.508-7.284a.283.283 0 01.223.089c.089.089.142.142.003.364 1.464-1.424 2.649-2.42 3.113-2.436a.434.434 0 01.324.12c.341.341.007 1.069-1.749 3.139 1.352-1.317 2.486-2.242 3.022-2.267a.515.515 0 01.393.142c.196.193.196.193-5.439 7.538l-1.537 2.002c3.438-3.678 7.466-7.809 8.239-7.828a.41.41 0 01.275.105c.217.217.576.577-9.357 12.564l2.566-2.566a203.769 203.769 0 004.017-4.459c1.662-1.887 1.662-1.887 1.837-1.893.087.009.156.028.212.083a.385.385 0 01.08.118l.337-.338a.284.284 0 01.429.367l-7.814 10.694c1.007-1.029 2.211-2.296 3.167-3.302 3.309-3.482 3.346-3.483 3.548-3.485.091-.025.155.03.209.085.1.1.111.258.026.371-2.527 3.354-5.189 7.063-6.396 8.994l9.989-9.99a.29.29 0 01.401 0c.063.063.112.112-.015.386l.015.015-.042.042c-.337.684-1.617 2.582-5.667 8.411l5.762-5.763a.284.284 0 01.408.393l-.986 1.053a.28.28 0 01.146.078c.07.069.125.125-.022.378l.007.007c1.41-1.373 2.395-2.245 2.624-2.248.084.021.171.035.225.09.627.627-1.205 3.259-3.639 6.199l3.464-3.464a.284.284 0 01.422.378 556.455 556.455 0 00-6.34 8.045c16.361-17.838 24.754-26.178 26.374-26.213a.51.51 0 01.371.138.284.284 0 01.007.394l-20.908 22.26c5.716-5.702 14.064-14.249 20.371-20.77a.289.289 0 01.202-.086h.002c.075 0 .147.03.2.083.19.191.465.465-1.221 2.701 1.93-1.981 3.253-3.066 3.94-3.093a.6.6 0 01.463.17c.17.17.254.396.249.672-.024 1.425-2.761 4.582-6.61 8.433a.283.283 0 01-.005.377l-.242.263c.22.358-.375 1.352-3.104 4.417.854-.757 1.441-1.202 1.647-1.206h.004c.076 0 .19.044.244.098.104.104.111.27.018.382l-9.418 11.296c2.2-2.254 4.11-4.07 4.562-4.081.065-.013.201.045.255.1.204.204.204.204-1.389 2.341-1.103 1.48-3.101 4.161-4.038 5.671a.283.283 0 01.303.445c-.727.944-.92.957-1.024.963-.076.018-.187-.032-.245-.091-.363-.363-.042-1.166 4.55-7.327l.455-.61c-2.17 2.002-6.677 6.792-9.637 10.035a.284.284 0 01-.427-.374l13.98-16.768c-3.611 3.37-11.53 11.632-17.075 17.549-.054.057-.145.096-.207.089a.283.283 0 01-.201-.083c-.087-.088-.147-.147.001-.387l-.008-.008.041-.043c.167-.248.528-.666 1.233-1.425-1.684 1.521-2.966 2.481-3.537 2.5-.006-.003-.014-.003-.022-.003zm1.368-1.519l-.718.728c1.274-.791 4.053-3.43 7.549-7.035-3.022 3.048-5.624 5.523-6.831 6.307zm.675-2.07c-.698.814-1.117 1.419-1.141 1.725l.019-.009 14.597-14.806c-.709.664-1.422 1.329-2.133 1.992-2.231 2.082-4.675 4.364-6.804 6.428-1.759 1.929-3.278 3.506-4.538 4.67zM45.512 59.66c-.607.646-1.245 1.321-1.916 2.027a1019.694 1019.694 0 01-14.238 14.661c.64-.146 1.691-.938 3.02-2.177 1.004-1.186 2.538-2.746 4.523-4.667 2.686-2.943 5.722-6.476 8.611-9.844zm14.303-14.288c-1.297 0-8.38 8.254-13.591 14.33a956.177 956.177 0 01-4.584 5.312l2.026-1.894c7.259-6.775 16.293-15.208 16.332-17.465.003-.157-.046-.225-.083-.261a.208.208 0 00-.1-.022zM19.4 48.619c-.871.893-1.7 1.752-2.418 2.51.744-.756 1.577-1.622 2.418-2.51zm-3.153-17.647a1090.78 1090.78 0 00-3.542 3.581 227.71 227.71 0 003.491-3.521.734.734 0 01.051-.06zm.296.522l-.292.335-.292.336c.22-.249.437-.496.648-.738l-.064.067z"/><path d="M7.047 36.304a.4.4 0 01-.285-.113c-.104-.104-.285-.286.56-1.509a.933.933 0 01-.355.101.45.45 0 01-.374-.139.283.283 0 01-.009-.391l.48-.526a.513.513 0 01-.482-.103c-.154.132-.229.154-.308.157a.318.318 0 01-.223-.087.285.285 0 01-.055-.324l1.928-3.987c-.573.581-1.3 1.334-1.975 2.045a.284.284 0 01-.411-.391c3.022-3.184 3.149-3.186 3.296-3.188.072.017.154.03.208.084a.285.285 0 01.056.325l-1.86 3.848c.435-.489.951-1.081 1.458-1.664 3.676-4.219 6.568-7.45 7.586-7.485a.523.523 0 01.369.138c.02.02.037.044.051.072l.704-.771a.28.28 0 01.397-.021.283.283 0 01.028.396c-.284.333-.777.91-1.404 1.63a.291.291 0 01.124-.026c.077 0 .169.037.223.09a.283.283 0 01.004.396c-.906.947-1.825 1.922-2.716 2.882l-.208.24c-1.747 2.02-3.252 3.739-4.436 4.943-.999 1.174-1.731 2.104-2.04 2.622 1.101-.818 4.028-4.081 6.047-6.331 3.552-3.959 4.576-5.033 5.01-5.045.074-.012.193.042.249.097.11.11.11.29 0 .401a.294.294 0 01-.232.081c-.505.275-2.68 2.699-4.605 4.845-4.078 4.545-6.077 6.688-6.788 6.708h-.012zm2.805-4.79L7.99 33.555c.254-.233.542-.516.852-.833.327-.393.702-.833 1.13-1.325a6.706 6.706 0 00-.12.117zm1.688-2.692c-1.486 1.459-3.149 3.098-3.977 4.001.455-.345 1.091-.924 1.852-1.672l2.125-2.329zm4.304-5.134c-.809.569-2.45 2.312-4.021 4.062 1.554-1.526 3.294-3.24 4.021-4.062z"/><path d="M9.718 27.753a.369.369 0 01-.263-.105.286.286 0 01-.043-.346l.929-1.559a.282.282 0 01-.01-.513c.113-.097.507-.505.833-.854a.283.283 0 01.45.339l-1.072 1.799c.893-.859 2.289-2.405 3.534-3.886a.284.284 0 01.433.365c-1.484 1.765-4.077 4.729-4.772 4.759l-.019.001z"/></g><path d="M94.984 47.558c-.033-.235-.162-.568-.58-.816-.674-.398-1.799-.364-2.497-.103-.759.285-2.992.493-3.706.493-.696 0-2.326 0-3.646.216-.238.039-.566.123-.941.218-.706.18-1.586.405-2.229.405-1.056 0-4.268 0-5.808-.206-.726-.097-1.455-.107-2.162-.118-.847-.013-1.646-.025-2.292-.186-.816-.205-2.477-.674-3.852-1.064-.739-.209-1.397-.396-1.801-.507-.541-.147-.969-.188-1.421-.231a9.971 9.971 0 01-2.137-.395c-1.761-.518-5.465-1.374-6.593-1.486-.034-.004-3.299-.324-4.256.155-.362.182-.747.539-1.152.916-.362.338-.771.718-1.062.854a1.961 1.961 0 01-.5.065c-.705 0-1.605.133-2.558.274-1.205.178-2.454.369-3.245.255-1.077-.154-2.783-.309-4.168-.309-.818 0-1.463.053-1.917.158-.391.091-.77.185-1.147.279-.949.236-1.844.459-2.87.605-.951.136-2.946.337-4.549.338-.591 0-1.067-.028-1.429-.081-.214-.472-.734-1.481-1.572-2.319-.731-.732-2.091-1.241-3.29-1.691-.656-.246-1.275-.478-1.63-.691-.912-.547-2.025-1.915-2.446-2.652a5.238 5.238 0 00-.137-.227c.102.016.213.025.335.025.383 0 .665.054.914.101.402.076.817.156 1.29-.127.593-.355.741-1.087.885-1.794.037-.181.074-.366.12-.549.105-.419.065-.82.033-1.143-.017-.168-.045-.449.023-.526.155-.078.326-.137.491-.196.529-.188 1.254-.447 1.254-1.252 0-.511-.329-.884-.621-1.212-.17-.192-.363-.411-.376-.554a10.99 10.99 0 00-.052-.437c-.083-.642-.21-1.612.033-2.416.562-1.854-.347-3.347-.764-3.902-.712-.95-2.374-2.25-3.816-2.694-1.439-.442-3.786-.56-5.07.023-1.235.561-2.216 1.542-3.082 2.408-.599.599-.786 1.378-.937 2.004-.076.313-.153.638-.254.763-.138.173-.523.41-.863.62-.529.326-1.077.662-1.364 1.093-.546.819-.984 2.753.086 3.69.201.176.383.358.557.532.572.572 1.163 1.163 2.076 1.163.707 0 1.214-.378 1.579-.757.059.543.107 1.288.128 1.939 0 .036-.002 3.655-.205 5.178l-.029.216c-.223 1.664-.597 4.45-.283 6.328l.321 1.92c.044.189.449 1.875.891 2.65.396.691 2.337 3.732 3.25 4.531 1.162 1.018 4.527 4.014 5.088 4.669.125.146.438.505.864.993 1.57 1.8 5.246 6.016 5.819 6.835.222.315.569.837.966 1.431.936 1.4 2.1 3.143 2.632 3.749.152.175.291.351.425.519.522.656 1.062 1.336 2.125 1.627.502.137 1.49.183 2.563.183a57.39 57.39 0 004.181-.167l.431-.038c.963-.08 1.96-.164 2.718-.812.856-.734 2.586-3.1 3.125-3.869.169-.242.457-.641.805-1.126 1.197-1.663 3.006-4.177 3.426-5.019.523-1.048 2.429-5.695 2.757-6.791.191-.641 1.045-2.304 1.667-3.519.362-.712.68-1.332.829-1.667.26-.585.693-1.564 1.171-1.725.141-.047.192-.033.628.231.299.183.708.433 1.326.698 1.562.669 3.513 1.087 4.66 1.191 1.246.11 4.631-.004 6.029-.326 1.332-.309 5.495-.826 6.391-.826h3.341c.373.419 1.353 1.479 2.153 2.015.127.085.244.167.353.243.706.495 1.265.891 2.504.439 1.34-.487 2.063-1.5 2.542-2.172.178-.25.323-.5.459-.736.239-.414.43-.743.723-.891.45-.227 1.277-.521 2.152-.832l.836-.3c.727-.264 1.729-.827 2.53-1.28.491-.276.955-.538 1.146-.609 1.229-.455 1.794-1.094 1.678-1.892zm-62.399.457c1.076-.154 2.038-.394 2.969-.625.372-.092.746-.186 1.13-.275 1.062-.247 4.11-.064 5.723.167.898.128 2.245-.066 3.531-.256.916-.136 1.781-.264 2.413-.264.32 0 .604-.06.871-.142.009-.004.02-.002.029-.007.008-.003.016-.01.024-.014.599-.197 1.083-.542 1.491-.849.375-.284.7-.529 1-.565l.364-.046c.601-.079 1.422-.186 2.181-.186.602 0 1.073.067 1.404.201.73.294.995.448 1.271.611.154.089.311.18.531.291.359.18.946.191 1.873.195.719.002 1.803.007 2.098.213.562.393.73.512.354 1.39a5.03 5.03 0 00-.27.848c-.102.425-.112.47-.498.599-.375.125-.606.228-.809.318-.301.133-.498.222-1.094.321-.419.07-.793.222-1.154.368-.615.249-1.211.461-1.901.301a8.192 8.192 0 00-1.909-.196l-.783.007c-.24 0-.48-.006-.727-.031-.822-.083-2.602.186-3.991.397-.456.069-.859.131-1.152.168-.688.086-2.783.25-4.466.38a180.35 180.35 0 00-2.549.208l-1.349.131c-2.122.205-5.674.548-7.049.709-1.068.126-2.445.177-3.66.218a48.62 48.62 0 00-1.986.096 12.53 12.53 0 01-.98.035c-1.333 0-2.706-.157-3.672-.422-1.085-.298-1.754-.354-2.606-.354l-.88.005c-.592 0-1.198.087-1.783.17-.584.083-1.136.161-1.671.161a4.08 4.08 0 01-.384-.016c-1.143-.096-1.875-1.449-2.01-1.721-.269-.538-.509-1.939-.377-2.583.16-.779.475-1.732 1.501-2.196.688-.31 1.283-.305 2.018-.233.339.033.705.068 1.134.068 1.352 0 3.624 1.083 4.288 1.416.839.419 2.346.701 3.676.948.454.084.888.166 1.267.246.446.096 1.079.145 1.882.145 1.548-.003 3.516-.183 4.687-.35zm7.704 7.719c-.245.351-.514.779-.79 1.225-.517.83-1.103 1.771-1.538 2.145-.204.176-.376.342-.533.492-.389.375-.571.543-.82.543-.135-.021-.472-.439-.694-.717-.312-.389-.702-.873-1.2-1.273-.549-.438-1.038-1.189-1.47-1.854-.341-.523-.664-1.02-1.006-1.361-.41-.408-.925-1.014-1.29-1.455.459-.029.907-.064 1.312-.112 1.364-.16 4.91-.503 7.029-.707l1.352-.132c.333-.032 1.057-.09 1.916-.157a248.623 248.623 0 01-2.268 3.363zm-19.585-23.56c.02.151.038.286.048.397.042.468.35.816.622 1.124.174.196.371.419.371.554 0 .098-.258.197-.595.317a5.263 5.263 0 00-.602.244c-.683.342-.616 1.018-.566 1.512.027.271.055.552-.008.804-.049.197-.09.396-.129.592-.101.497-.205 1.01-.423 1.141-.134.081-.227.073-.593.003a5.42 5.42 0 00-1.1-.119c-.365 0-.463-.124-.576-.267-.092-.116-.246-.311-.524-.327-.181-.014-.355.062-.508.214-.515.516-.104 1.099.195 1.525.111.157.237.335.354.541.382.668 1.262 1.808 2.182 2.568a5.522 5.522 0 01-.887-.147c-1.238-.336-2.886-.332-3.661-.222-.802.115-2.289.461-3.232 1.493a7.127 7.127 0 00-.656.858c.081-1.081.224-2.144.331-2.941l.029-.217c.156-1.168.198-3.407.209-4.576.359-.125.731-.348.872-.628.21-.419.524-1.363.419-2.832-.105-1.469.105-2.937.629-3.146.524-.21 1.573.105 1.992.734s-.629 1.363 0 1.573c.629.21 1.259-.21 1.783-1.468s.838-1.993 1.468-2.832 1.213-1.599 1.993-1.783c.128-.03.224-.065.306-.102.32.577.65 1.504.324 2.58-.305 1.009-.162 2.107-.067 2.833zm5.82 37.09c-.462-.66-2.589-3.131-4.389-5.201a87.581 87.581 0 002.2-1.855c.944-.839 2.937-2.831 3.985-3.67.805-.645 1.97-2.76 2.47-3.71.251.288.511.575.745.81.27.27.564.723.876 1.201.472.727 1.008 1.547 1.681 2.087.414.331.75.75 1.047 1.119.24.298.463.573.703.772-.219.604-.642 1.641-1.253 2.557-.924 1.387-2.413 4.312-3.08 5.135-.524.645-2.484 2.488-3.305 3.252l-.702-1.046c-.4-.606-.752-1.13-.978-1.451zm66.433-20.737c-.262.099-.713.353-1.283.674-.771.435-1.732.976-2.384 1.213l-.829.297c-.902.322-1.758.625-2.264.878-.561.28-.854.79-1.139 1.283-.121.211-.248.435-.408.655-.559.783-1.102 1.462-2.072 1.814-.752.271-.946.137-1.596-.32-.113-.08-.235-.166-.371-.256-.875-.584-2.09-1.994-2.102-2.008a.503.503 0 00-.377-.174h-3.564c-.957 0-5.205.525-6.613.854-1.27.291-4.585.405-5.719.304-1.105-.101-2.959-.517-4.356-1.116a8.767 8.767 0 01-1.203-.632c-.461-.282-.86-.524-1.456-.326-.824.274-1.306 1.228-1.766 2.263-.145.325-.452.928-.807 1.616-.709 1.388-1.516 2.959-1.731 3.687-.188.621-.942 2.531-1.624 4.172-.622-1.07-2.035-3.432-2.897-4.293-.91-.909-3.535-3.116-4.521-3.941a451.277 451.277 0 001.936-2.898c1.6-.125 3.24-.256 3.866-.334.3-.039.713-.102 1.179-.172 1.246-.19 3.011-.464 3.744-.392.278.026.551.035.823.035l.783-.007c.491 0 1.036.021 1.687.171.943.217 1.817-.074 2.496-.349.326-.133.637-.257.948-.31.718-.12 1.002-.247 1.331-.394.18-.08.387-.171.719-.284.908-.303 1.031-.813 1.149-1.307.048-.198.103-.423.215-.687.335-.777.347-1.304.136-1.732.407.071.752.106 1.067.136.428.041.796.076 1.253.201.4.109 1.059.295 1.794.504 1.386.393 3.058.866 3.88 1.071.758.189 1.612.202 2.518.216.679.01 1.379.02 2.047.109 1.604.214 4.867.214 5.938.214.768 0 1.715-.242 2.475-.436.341-.086.642-.164.857-.2 1.239-.203 2.812-.203 3.484-.203.785 0 3.133-.21 4.055-.556.514-.193 1.296-.179 1.645.027.029.017.098.062.104.104.038.268-.334.562-1.047.829z" fill="#8c8c8c"/><path d="M9.917 37.357s.662.175 1.378-.234 1.197-1.332 1.074-3.12c-.088-1.287.048-2.243.229-2.786.115-.346.238-.525.75-.576s.997.282 1.354.691c.202.231.173.26.072.727-.155.715-.402.735-.014.974s.73.305 1.293-.309.927-1.91 1.688-3.222c.719-1.24 1.227-1.865 2.092-2.406s1.744-.049 1.642-.561-.537-1.492-2.276-2.668-2.966-1.39-4.756-1.441-2.738.403-4.221 1.603c-1.295 1.047-1.887 1.861-2.091 2.577s-.253 1.416-.49 1.614-1.521.76-2.191 1.701-.65 2.036-.497 2.804.459 1.412 1.073 1.923 1.406.745 2.018.922c.894.259 1.717-.646 1.717-.646l.156 2.433z" fill="#6f6f6f"/><g fill="#7c7c7c"><path d="M8.895 37.452a.284.284 0 01-.249-.418l2.342-4.35-.004-.165.2-.2-.201.2-.176-.22c.033-.03.116-.124.219-.236.585-.644.68-.726.843-.729.078.002.159.03.214.085a.282.282 0 01.049.335l-2.075 3.852.442-.444a.285.285 0 01.471.288l-.093.289.664-.664a.283.283 0 11.401.401l-1.412 1.412a.293.293 0 01-.401 0c-.085-.084-.131-.13-.034-.516-1.076 1.08-1.095 1.08-1.2 1.08zm9.247-9.602l-.002-.284.2-.2-.2.2-.167-.228c.091-.075.74-.787 1.412-1.429.872-.832.821-.668.994-.67.052.002.15.03.204.083a.283.283 0 01.014.387l-.508.619a.28.28 0 01-.136.194c-.04.038-.103.108-.164.174-.2.218-.248.27-.379.273-.051.008-.145-.024-.198-.073-.931.953-.949.953-1.07.954z"/><path d="M14.423 32.285a.282.282 0 01-.252-.154.282.282 0 01.022-.296c1.664-2.293 3.355-4.833 4.058-6.167l-3.719 3.719a.284.284 0 01-.468-.108c-.415.356-.737.574-.912.581-.09-.02-.214-.047-.269-.103a.283.283 0 01.267-.476c.562-.25 3.13-2.978 5.354-5.545a.283.283 0 01.414-.015c.094.093.197.196-.087.678.071-.031.148.026.205.083.159.158.538.537-2.341 4.786.542-.542.598-.542.711-.543.073-.015.154.03.208.085.097.097.111.25.032.362l-.412.592a.284.284 0 01.095.46c-1.346 1.388-1.352 1.388-1.502 1.39-.048.009-.151-.029-.205-.083-.074-.074-.118-.118-.027-.312-1.021 1.066-1.024 1.066-1.169 1.067l-.003-.001z"/><path d="M8.41 34.761a.432.432 0 01-.255-.1c-.072-.072-.131-.131.043-.413-.121.079-.162.068-.186.077a.32.32 0 01-.213-.087c-.339-.339.235-1.459 1.312-2.975-.927.896-1.533 1.35-1.855 1.359a.376.376 0 01-.3-.114c-.072-.072-.1-.177-.072-.276.259-.938.518-1.966.649-2.605-.26.254-.606.603-.995 1a.308.308 0 01-.063.099c-.459.465-1.14 1.156-1.47 1.497l-.205.216c-.054.057-.15.067-.206.089a.287.287 0 01-.201-.083c-.097-.098-.149-.149.018-.374l-.023-.022.068-.071a.299.299 0 01.064-.1l.59-.59c2.496-2.617 2.632-2.619 2.765-2.621h.003a.3.3 0 01.207.084c.122.122.259.26-.518 3.129 1.182-.845 4.463-4.509 6.135-6.375 2.09-2.334 2.106-2.334 2.298-2.34.078.006.158.03.213.085a.284.284 0 01.009.391c-3.521 3.89-7.091 8.24-7.849 9.771 1.406-1.265 5.537-5.492 8.897-8.986l1.395-1.455a.284.284 0 01.41.392l-1.341 1.4a920.523 920.523 0 00-5.114 5.389.23.23 0 01.035.033l.36-.36a.284.284 0 01.401.401L9.572 34.07a.29.29 0 01-.24.08c-.414.373-.738.603-.915.61l-.007.001z"/><path d="M8.466 28.734a.319.319 0 01-.214-.087c-.161-.161-.252-.251 1.266-2.292a.283.283 0 01-.168-.482l2.27-2.27a.284.284 0 01.425.374c-.7.904-1.432 1.869-2.031 2.676 1.242-1.25 2.92-3.008 4.121-4.288a.283.283 0 11.413.387c-5.603 5.973-5.935 5.979-6.076 5.98l-.006.002z"/></g><path d="M21.272 64.736s1.48-1.009 3.517-2.738c2.104-1.787 3.142-2.681 4.266-4.007.981-1.157 1.701-2.651 1.816-2.997s.346-1.182.346-1.182l-.269-.334s-3.248.074-4.343.074-2.738.058-3.805-.172-2.738-.605-3.488-.605-2.623.087-3.343.202-2.249.229-2.854-.289-1.409-1.43-1.614-2.306c-.202-.865-.346-2.133-.202-2.796s.374-1.182.778-1.585 1.089-.959 1.614-1.125c.548-.173 1.413-.259 2.421-.115.957.137 1.902.116 2.623.404s1.959.807 3.026 1.182 1.614.577 2.565.721 2.139.22 2.139.22-.553-1.488-1.159-2.064-1.384-1.124-2.45-1.557-1.441-.547-2.479-.691-2.075-.461-4.006-.548-2.277-.058-3.055.173-1.816.894-2.22 1.326-.778 1.153-1.182 1.585-.605.778-.605 1.124-.057 1.642.145 2.68.46 2.047.749 2.796.836 1.643 1.326 2.363 1.326 2.019 2.075 2.796c1.788 1.854 3.286 2.739 4.612 4.151s3.056 3.314 3.056 3.314z" fill="#848484"/><g fill="#939393"><path d="M17.962 63.625a.29.29 0 01-.242-.132c-.034.019-.047.014-.069.018a.287.287 0 01-.285-.288c.001-.142.001-.145 1.302-1.391-.206-.25-.048-.606 1.537-2.555-.779.763-1.374 1.265-1.593 1.271a.389.389 0 01-.241-.094c-.133-.133-.218-.217.665-1.436-.67.692-1.014.95-1.247.957-.088-.014-.204-.046-.26-.101l-.023-.026-.621.688a.282.282 0 01-.397.024.282.282 0 01-.03-.396l1.271-1.505-.165.164a.29.29 0 01-.401 0c-.037-.036-.07-.07-.082-.118-.547.591-1.098 1.193-1.634 1.787a.284.284 0 01-.446-.349 869.335 869.335 0 004.136-6.213 85.012 85.012 0 00-2.617 2.831.282.282 0 01-.371.046.282.282 0 01-.115-.306c-.825.873-1.536 1.525-1.831 1.537-.076.041-.205-.042-.261-.099-.089-.089-.177-.176.035-.545-.726.689-.89.694-.965.697a.41.41 0 01-.241-.094.281.281 0 01-.073-.126.283.283 0 01-.34-.443l2.137-2.317c-.042-.106-.058-.323.018-.872-1.7 1.819-1.851 1.822-1.976 1.824a.341.341 0 01-.216-.086c-.168-.168-.229-.229.975-1.933a.288.288 0 01-.092-.132l-.553-1.685a35.25 35.25 0 00-.259.266.281.281 0 01-.201.085h-.002a.283.283 0 01-.201-.083c-.029-.029-.031-.031-.307-.457l-.214-.329c-.186.186-.449.453-.65.658-.096.099-.248.113-.361.037s-.156-.223-.102-.348l.434-1.002-1.591 1.591a.283.283 0 11-.401-.4l2.642-2.642a.285.285 0 01.36-.034.283.283 0 01.101.347l-.468 1.082c.029-.012.05-.011.085-.011.074 0 .145.029.197.081.035.035.058.066.445.661l.075.116c.413-.422.43-.423.544-.423h.002c.122 0 .231.078.27.194l.551 1.68.845-.845a.284.284 0 01.384-.016.284.284 0 01.045.382c-.207.286-.417.579-.622.865.165-.176.329-.354.49-.528a.283.283 0 01.487.244c-.056.294-.111.621-.15.897l2.124-2.124a.283.283 0 01.409.392l-.644.697c.058.07.089.16.087.257-.001.128-.089.317-.238.548l.731-.771a.283.283 0 01.414.386l-.102.11a.29.29 0 01.145.078.342.342 0 01.09.226.308.308 0 01-.018.104c1.876-1.988 2.155-1.996 2.263-1.999a.366.366 0 01.239.093c.186.184.214.212-3.039 5.071 2.128-2.277 4.347-4.525 4.822-4.538.047-.004.19.04.246.095.11.11.111.287.003.398l-.123.127.014.012a.282.282 0 01.062.334c.418-.357.73-.571.882-.576.09.008.196.043.251.098a.284.284 0 01.006.395l-.613.653a.284.284 0 01-.005.345 246.045 246.045 0 00-3.073 3.951 117.325 117.325 0 003.718-3.976.282.282 0 01.203-.094.307.307 0 01.208.083c.291.29.164.534-2.394 3.612-.461.555-.996 1.198-1.459 1.777a212.942 212.942 0 004.499-4.686.261.261 0 01.207-.09c.061 0 .119.02.167.055 1.05-1.062 2.083-2.107 3.007-3.046.054-.055.145-.062.202-.084.075 0 .147.029.2.083a.47.47 0 01.105.27c-.004.216-.331.694-.872 1.341-.096.437-.839 1.346-3.046 3.896a143.97 143.97 0 00-1.858 2.175c3.185-3.215 4.439-4.464 4.981-4.902l.03-.064.032.016c.293-.228.345-.174.424-.098a.286.286 0 01.058.322l-1.525 3.265c.153-.181.292-.351.381-.46.397-.484.429-.523.579-.531.073.001.16.027.217.084a.284.284 0 01-.051.44c-.057.06-.167.196-.306.366-.95 1.159-1.288 1.481-1.575 1.495a.461.461 0 01-.269-.102.284.284 0 01-.056-.32l1.437-3.075a1294.108 1294.108 0 00-6.031 6.062.283.283 0 01-.402.001c-.351-.351.034-.992 2.541-3.922a262.046 262.046 0 01-3.449 3.327c-.98.965-1.448 1.396-1.685 1.588l-.083.077-.007-.008c-.113.092-.165.078-.178.091zm5.465-15.701a.283.283 0 01-.2-.083c-.052-.052-.104-.104-.101-.211-.199.176-.234.167-.298.175a.285.285 0 01-.201-.083c-.117-.117-.17-.17.315-3.691-.139.148-.289.312-.425.466a.282.282 0 01-.205.095l-3.345.081a.324.324 0 01-.114.062.323.323 0 01-.298-.079c-.074-.074-.125-.125-.292-1.531a.288.288 0 01-.132.034c-.046-.004-.085-.007-.123-.024-.189-.019-.765.103-1.127.168-.506.092-.792.143-.972.149l-1.043 1.043a.285.285 0 01-.401-.001c-.061-.062-.098-.134-.31-.71l-1.819 1.819a.283.283 0 01-.44-.352l.303-.479a.284.284 0 01.094-.413c.056-.051.159-.164.255-.268.273-.293.308-.331.441-.333a.31.31 0 01.25.14l.825-.825a.295.295 0 01.401 0c.051.051.051.051.181.405.03.083.074.203.118.319l.84-.84a.282.282 0 01.285-.07c.134-.003.568-.082.89-.141.697-.127 1.058-.189 1.269-.176.05-.054.109-.123.152-.171.089-.101.147-.15.278-.168.144 0 .266.108.282.252.068.606.152 1.271.208 1.624l3.208-.077c.917-1.025 1.016-1.028 1.141-1.032.066.009.161.03.216.084a.285.285 0 01.081.24 149.92 149.92 0 00-.453 3.491c.644-.64 1.763-1.772 2.533-2.556a.283.283 0 01.413.388 53.679 53.679 0 00-1.39 1.606.283.283 0 01.057.445l-1.146 1.146a.289.289 0 01-.201.082z"/><path d="M9.028 52.24a.284.284 0 01-.235-.442l1.234-1.823a.284.284 0 01-.013-.29c1.145-2.135 2.349-4.494 2.93-5.792-.362.369-.797.818-1.187 1.22-2.181 2.25-2.191 2.25-2.366 2.252h-.002a.285.285 0 01-.122-.542c.209-.171 1.246-1.24 2.083-2.105 2.037-2.102 2.04-2.102 2.213-2.103.087.019.151.03.205.083.165.166.389.389-2.717 6.247a.25.25 0 01.047.039c.076.075.118.118-.029.393l.017.019-.061.059c-.146.256-.424.679-.915 1.406l.006.006c.11.11.11.29 0 .4l-.889.889a.27.27 0 01-.199.084z"/></g><path d="M27.383 72.371s.836-.692 1.585-1.499 1.669-1.486 2.45-2.622a57.265 57.265 0 002.94-4.814c.461-.867 1.902-3.774 1.902-3.774s.173.374.49.346.98-.721 1.441-1.354 1.701-2.421 1.96-2.939.836-1.183.836-1.183 1.235.649 3.026 2.162c1.672 1.412 2.682 2.334 3.777 3.919s2.133 4.007 2.133 4.007-.778 1.815-2.451 4.296c-1.605 2.381-3.055 4.409-4.035 5.591s-1.442 1.872-2.249 2.219-3.026.548-4.237.605-3.43.116-4.497-.028-1.441-.259-1.989-.836-1.124-1.211-1.787-2.104-1.295-1.992-1.295-1.992z" fill="#848484"/><g fill="#939393"><path d="M35.097 78.742a.476.476 0 01-.349-.139.579.579 0 01-.167-.387.283.283 0 01-.261-.467l7.566-8.618-5.306 5.306c-.624.628-1.162 1.165-1.565 1.565a.284.284 0 01-.4-.401V75.6l1.454-1.454c4.57-4.599 9.036-9.364 9.853-10.741-1.502.941-6.792 6.783-9.154 9.393-2.537 2.801-2.548 2.802-2.738 2.806-.112-.014-.157-.029-.211-.084a.625.625 0 01-.174-.473c.004-.275.166-.669.45-1.151-2.593 2.779-3.502 3.633-3.862 3.641-.065.009-.188-.041-.242-.096a.284.284 0 01-.02-.379l10.146-12.498c-4.548 4.839-9.993 10.419-10.938 10.441a.375.375 0 01-.287-.109c-.041-.04-.074-.073-.064-.141l-.206.223a.333.333 0 01-.208.091.283.283 0 01-.201-.083c-.071-.071-.123-.123.023-.364l-.031-.028.198-.214c.618-.831 2.55-2.978 7.996-9.026l.791-.878-10.282 10.28a.283.283 0 11-.401-.4l18.178-18.178a.283.283 0 01.396-.005.285.285 0 01.015.396 5870.99 5870.99 0 00-4.916 5.437c2.857-2.872 5.191-5.05 5.708-5.061h.003c.078 0 .206.049.26.103.109.109.11.287.002.398l-.16.163a.284.284 0 01.135.45L32.97 74.266c1.191-1.263 2.605-2.803 3.938-4.254 6.321-6.885 9.092-9.766 9.891-9.783.1-.004.216.038.292.112a.284.284 0 01-.006.406c-6.81 6.422-12.148 12.261-12.824 13.954.459-.486 1.257-1.367 2.087-2.284 5.684-6.277 8.938-9.684 9.85-9.706a.419.419 0 01.312.118c.05.05.11.14.11.28 0 .188-.197.546-.541 1.027l1.576-1.575a.284.284 0 01.413.387L41 71.001c.266-.245.54-.495.819-.75l7.502-7.503a.29.29 0 01.401 0c.076.075.116.18.113.294-.005.214-.199.537-.612 1.015a.426.426 0 01.162.348c-.002.457-.816 1.507-2.214 3.013a.375.375 0 01.024.12.417.417 0 01-.039.166l.29-.297c.767-.842.802-.843.936-.846.077-.013.155.028.211.084.11.109.11.288.001.398l-.739.757c-.311.34-.695.767-1.089 1.204a305.622 305.622 0 01-2.561 2.812.284.284 0 01.065.43l-1.673 1.898a.283.283 0 01-.149.465c-.232.174-1.082 1.085-1.599 1.64-1.079 1.156-1.085 1.156-1.247 1.159a.323.323 0 01-.208-.084.284.284 0 01-.012-.388l.777-.882a.255.255 0 01-.055-.043.28.28 0 01-.07-.096c-.251.174-.444.264-.579.268a.384.384 0 01-.291-.111.447.447 0 01-.129-.334v-.021c-.95.962-1.878 1.903-2.717 2.756a.28.28 0 01-.201.084h-.001a.279.279 0 01-.25-.151c-.31.215-.559.329-.748.336h-.021zm.409-1.377c-.289.401-.425.694-.355.839h.002c.704 0 4.729-4.634 7.394-7.701l.626-.72c-.305.277-.627.57-.96.875l-6.707 6.707zm8.452-6.33c-1.496 1.428-3.748 3.589-4.253 4.446.285-.194.716-.58 1.23-1.079.587-.718 1.53-1.781 3.023-3.367zm-1.937-9.346a2800.334 2800.334 0 00-10.558 10.895c2.572-2.423 6.787-6.835 10.558-10.895zm5.553 4.048c-1.242 1.273-3.043 3.347-4.599 5.138l-.078.09c2.538-2.51 5.246-5.272 5.813-6.279-.105.076-.23.18-.373.308-.226.226-.481.473-.763.743z"/><path d="M31.255 69.93a.279.279 0 01-.2-.083c-.131-.13-.176-.176.006-.395l-.006-.006.093-.093c.097-.107.232-.246.415-.435 4.497-4.629 7.136-7.522 8.674-9.332-2.591 2.864-5.996 6.455-6.792 6.482a.394.394 0 01-.296-.111.446.446 0 01-.101-.26c.006-.36 1.027-1.552 2.475-3.062l.17-.338.245-.49-.023-.021a.284.284 0 010-.4l.364-.363c.11-.111.29-.11.4-.001.092.091.125.171.065.365 2.362-2.379 5.295-5.146 7.012-6.748a.284.284 0 01.398.404l-1.32 1.376c.16.215.165.681-1.599 2.85l1.96-1.961a.283.283 0 11.401.4l-12.139 12.14a.295.295 0 01-.202.082zm4.238-6.447c-.642.673-1.157 1.239-1.486 1.646.473-.384 1.168-1.043 2-1.883-.311.258-.361.267-.418.253a.265.265 0 01-.096-.016z"/><path d="M38.572 59.775a.395.395 0 01-.242-.097c-.164-.164-.175-.36.202-.877a.37.37 0 01-.089-.229c.001-.077.063-.204.185-.379a.282.282 0 01.083-.215l.499-.499c.66-.74 1.744-1.824 3.247-3.246a.284.284 0 01.398.009.282.282 0 01-.003.397l-.703.703c.129.146.081.238-.532.889a.284.284 0 01.039.51c-.088.085-.361.395-.625.693-1.632 1.849-2.136 2.33-2.45 2.34l-.009.001z"/></g></svg>