<svg height="100" width="100" xmlns="http://www.w3.org/2000/svg"><g fill="#ccc"><path d="M69.607 78.914a.283.283 0 01-.234-.443c.163-.238.336-.497.49-.737a.282.282 0 01.079-.508 6.26 6.26 0 00.497-.547.285.285 0 01.419-.02c.055.054.101.1.099.197.329-.317.361-.311.454-.314.09 0 .175.043.229.115 0 0 .537.725.833 1.118l.597-.603c.946-.954.946-.954 1.071-.954l.001.283-.2.2.2-.2.183.217a67.86 67.86 0 00-.852.854c-1.013 1.022-1.012 1.023-1.218.844-.031-.029-.056-.054-.884-1.17-.326.319-.976.979-1.562 1.583a.274.274 0 01-.202.085zm6.443-25.478a.282.282 0 01-.2-.082c-.153-.151-.231-.229.807-1.576a.437.437 0 01-.068-.027c-1.498 1.55-1.63 1.552-1.758 1.555a.317.317 0 01-.216-.087c-.157-.156-.503-.502 2.748-5.923-4.796 4.881-4.892 4.882-5.03 4.883-.066.017-.148-.029-.203-.082-.198-.201-.257-.259 4.891-8.07-2.863 3.118-6.487 6.904-7.21 6.925h-.005a.459.459 0 01-.264-.104.282.282 0 010-.4.287.287 0 01.273-.074c.795-.312 5.33-5.068 9.27-9.469a.284.284 0 01.447.345 840.163 840.163 0 00-5.845 8.948 728.71 728.71 0 005.012-5.073.283.283 0 01.443.348c-1.612 2.596-3.259 5.461-3.847 6.777.503-.492 1.349-1.362 2.623-2.729.088-.094.142-.151.262-.153.081-.016.149.028.202.08l.771-.771a.284.284 0 01.42.381 172.665 172.665 0 00-2.394 2.988l.161.214c-.059.049-.293.292-.527.533-.629.646-.629.646-.762.646l-.001-.003zm-12.869 2.602a.285.285 0 01-.214-.47l1.659-1.904c-1.008.907-1.761 1.454-2.122 1.466a.456.456 0 01-.336-.125c-.316-.315-.507-.506 8.276-11.193l.097-.118c-2.733 2.668-7.409 7.547-10.613 10.958a.286.286 0 01-.401.013.285.285 0 01-.013-.401c4.573-4.866 12.358-13.031 13.122-13.043a.299.299 0 01.231.092c.201.2.201.2-1.984 2.86-2.201 2.678-7.087 8.623-8.073 10.256 1.15-.702 4.77-4.211 11.932-12.375l.115-.13.046-.053.002.001c.087-.09.117-.096.203-.099a.286.286 0 01.265.162.283.283 0 01-.042.308l-6.52 7.482 7.355-7.354a.283.283 0 11.4.401L63.381 55.955a.28.28 0 01-.2.083zm9.262-16.623a.285.285 0 01-.191-.074.285.285 0 01-.018-.401c3.024-3.312 10.161-11.018 11.085-11.038a.363.363 0 01.254.099c.31.308.055.788-1.823 3.304 2.175-2.363 4.682-4.945 5.268-4.962.073 0 .211.046.267.102.108.088.926.515 1.718.908 1.192-1.446 2.653-3.086 3.164-3.112.092.006.22.046.275.103.126.125.113.223.021.984l-.038.316.882-.881a.283.283 0 11.4.401l-1.395 1.394a.284.284 0 01-.401-.001c-.14-.141-.13-.325-.011-1.298l.031-.259c-.562.48-1.695 1.741-2.633 2.887a.286.286 0 01-.345.075c-.611-.301-1.603-.798-1.957-1.031-.787.378-4.724 4.59-7.352 7.555a.279.279 0 01-.203.095.296.296 0 01-.209-.083c-.292-.292-.068-.686 1.843-3.237.562-.75 1.326-1.771 1.741-2.421-1.771 1.475-6.911 6.923-10.164 10.484a.286.286 0 01-.209.091zm-28.27 16.066a.28.28 0 01-.2-.083.382.382 0 01-.11-.29c.02-.56 1.762-2.266 3.293-3.66.889-1.001 1.475-1.514 1.746-1.527.045-.009.082.007.125.021l1.303-1.303a.283.283 0 11.401.401l-6.357 6.358a.281.281 0 01-.201.083z"/><path d="M62.656 79.087a.374.374 0 01-.235-.095c-.332-.332-.045-.756 2.367-3.493.732-.83 1.723-1.954 2.28-2.698-.707.649-2.075 2.046-4.715 4.975-.411.456-.411.456-.535.459a.28.28 0 01-.256-.146.283.283 0 01.012-.294 790.798 790.798 0 002.341-3.537l-2.626 2.626-.001.001a.284.284 0 01-.4.001.284.284 0 01-.001-.4l.41-.416a.401.401 0 01-.171-.1.285.285 0 01-.011-.39c4.585-5.113 9.161-10.78 9.973-12.651l-6.597 6.598a247.807 247.807 0 01-2.342 2.342.283.283 0 01-.399-.402l2.297-2.297c2.338-2.373 4.506-4.684 5.828-6.247l-7.406 7.405a.282.282 0 01-.396.005.285.285 0 01-.015-.396l8.784-9.677c-.763.632-1.936 1.795-3.31 3.252-1.39 1.66-3.344 3.88-6.078 6.854a.286.286 0 01-.396.021.284.284 0 01-.029-.396c.819-.973 3.441-4.058 5.916-6.681 1.052-1.244 1.937-2.337 2.536-3.15l-6.75 6.749a.282.282 0 01-.4 0c-.396-.395.17-1.163 3.776-5.137.881-.97 1.916-2.11 2.465-2.791-1.211.941-3.932 3.932-6.321 6.827a.289.289 0 01-.389.047.285.285 0 01-.065-.386c1.83-2.712 4.38-6.517 5.543-8.305-1.168 1.074-3.263 3.35-5.138 5.53a.28.28 0 01-.204.099c-.083-.007-.155-.026-.211-.083-.421-.421.173-1.285 3.971-5.781.63-.746 1.394-1.648 2.139-2.559-3.867 3.802-9.266 8.432-10.179 9.211a.304.304 0 01-.067.043l-1.324 1.323a.279.279 0 01-.2.083h-.001a.277.277 0 01-.201-.085c-.077-.078-.126-.128.041-.359l-.039-.039.5-.501c.52-.563 1.471-1.532 3.159-3.25a605.237 605.237 0 014.855-5.035l-7.089 7.088a.282.282 0 01-.4 0c-.063-.062-.103-.102.001-.399l-.001-.001.001-.002c.133-.385.499-1.198 1.347-3.043l-1.276 1.275c-2.87 3.199-4.33 4.751-4.988 4.986a.283.283 0 01-.376-.021l-.021-.023a.352.352 0 01-.035-.031c-.438-.438.605-2.227 2.244-4.476-1.555 1.591-2.895 2.826-3.32 2.839a.48.48 0 01-.274-.104c-.273-.272-.29-.289 13.47-15.838a7882.61 7882.61 0 0113.299-14.988c-3.235.48-17.734 17.024-24.744 25.022-4.507 5.143-4.542 5.145-4.766 5.151a.298.298 0 01-.215-.085c-.296-.295-.815-.815 2.718-5.258-4.346 4.906-7.146 7.738-8.309 7.78a.614.614 0 01-.477-.175c-.13-.13-.194-.306-.191-.523.006-.493.438-1.322 1.176-2.382-2.993 2.95-5.07 4.901-5.335 4.903h-.002a.315.315 0 01-.213-.088c-.258-.258.003-.911 2.682-4.063-3.843 4.009-6.585 6.512-7.625 6.539a.555.555 0 01-.441-.163c-.181-.181-.344-.344 3.536-4.917l-3.405 3.404a.285.285 0 01-.333.05.285.285 0 01-.145-.305c.195-.988.447-2.328.565-3.079-1.251 1.126-4.786 4.799-7.042 7.194a.283.283 0 01-.396.017.285.285 0 01-.026-.396c1.131-1.323 2.622-3.1 3.819-4.578l-5.061 5.061a.284.284 0 01-.418-.382l2.108-2.535-5.538 5.537a.283.283 0 01-.401 0c-.089-.089-.141-.141.017-.384l-.017-.017.091-.092c.156-.215.434-.546.897-1.077l-2.13 2.131a.284.284 0 01-.479-.147 31.441 31.441 0 00-.47-2.092l-4.919 4.918a.283.283 0 01-.413-.388l.398-.45c-.256-.262-.098-.727.988-2.803l-4.282 4.282a.28.28 0 01-.271.074.282.282 0 01-.202-.195 46.184 46.184 0 00-.715-2.27c-.487.495-.525.479-.706.309a.283.283 0 01.031-.437c.104-.095.56-.565.56-.565.053-.056.102-.106.204-.086.075 0 .147.029.2.082.05.05.195.195.835 2.351l5.131-5.131a.283.283 0 01.401 0c.189.188.146.27-.558 1.609-.211.401-.517.981-.76 1.487l.114-.133c1.376-1.598 1.893-2.131 2.241-2.145.085-.018.208.045.264.102l.021.023 1.345-1.345a.287.287 0 01.402 0c.055.056.212.214.613 2.173l7.298-7.299a.283.283 0 01.401 0c.09.09.147.147-.004.396l.004.004-.018.019c-.106.168-.301.418-.632.812l4.021-4.021a.283.283 0 01.419.382l-2.108 2.535 3.216-3.216a.283.283 0 01.401 0c.138.139.271.271-1.082 2.034 2.246-2.249 2.426-2.233 2.535-2.23.076 0 .162.034.215.088.119.119.184.184-.375 3.068l8.31-8.31a.285.285 0 01.394-.007c.111.104.12.279.02.394-2.965 3.384-7.598 8.779-8.496 10.089 1.969-.516 11.973-11.611 17.457-17.693 6.242-6.923 7.878-8.667 8.371-8.68.071 0 .185.039.24.094.243.243.243.243-5.182 6.179-4.558 4.986-12.432 13.6-14.896 16.799 1.475-1.37 4.259-4.127 7.609-7.497 5.832-6.662 15.491-15.905 17.006-17.348a.283.283 0 01.398.402c-4.916 5.068-11.606 11.933-16.977 17.325-2.55 2.894-4.308 5.206-4.318 6.084-.001.057.009.099.026.116 1.497-.044 7.694-7.22 13.162-13.552 7.288-8.44 11.825-13.568 13.373-13.625a.616.616 0 01.47.172c.11.111.111.29.001.4-10.147 10.226-20.519 21.738-20.982 23.944.665-.691 2.326-2.588 4.198-4.725 10.651-12.152 22.266-25.126 25.262-25.225.28-.005.469.067.625.223a.285.285 0 01.012.389c-7.588 8.527-20.869 23.498-25.447 28.803 1.674-1.642 4.199-4.364 6.487-6.948a.281.281 0 01.397-.027.284.284 0 01.031.397c-3.147 3.736-6.324 7.904-7.04 9.436l4.961-5.017c3.155-3.522 4.074-4.48 4.497-4.492h.005c.078 0 .191.044.245.098.11.11.111.289.001.399l-2.387 2.414a.339.339 0 01-.023.081c-.446.97-1.022 2.229-1.452 3.174l20.273-20.272a.284.284 0 01.4 0c.246.247.411.413-6.917 8.014a.51.51 0 01.131.379c-.011.253-.227.653-.6 1.158-.56 1.138-2.162 3.139-5.12 6.641-.395.466-.81.958-1.218 1.446 1.386-1.476 2.713-2.755 3.165-2.771.101 0 .209.033.282.106.191.188.229.226-3.461 5.714 1.679-1.857 3.458-3.646 4.119-3.677.16-.022.28.063.342.125.303.303.146.566-2.894 3.915-.442.487-.954 1.051-1.454 1.612l5.302-5.301a.282.282 0 01.4 0c.103.102.306.305-.68 1.755.723-.618 1.297-1.003 1.62-1.017a.497.497 0 01.366.134.284.284 0 01.01.391l-1.726 1.9.879-.878a.282.282 0 01.4 0 .4.4 0 01.116.298c0 .179-.153.483-.421.881a.285.285 0 01.272.074c.776.776-2.334 4.917-5.728 8.96a.281.281 0 01.166.081c.108.107.235.235-.294.973.07.071.116.119-.013.389l.011.011-.031.031c-.18.359-.634 1.072-1.639 2.593 2.808-3.018 3.352-3.32 3.613-3.327h.005a.41.41 0 01.247.098c.396.396-.191 1.175-2.737 4.064l-.509.578c.359-.389.71-.772 1.004-1.095 1.79-1.96 1.873-2.017 2.066-2.021h.007c.075 0 .155.032.209.085.25.25.072.476-1.082 1.945l-.087.11c.247-.209.315-.211.374-.213.09.008.163.032.217.086a.31.31 0 01.055.074l1.142 2.28c.45-.435 1.437-1.439 2.323-2.359.054-.057.143-.065.204-.087.075 0 .147.029.2.083.206.205.137.288-.526 1.078-.303.36-.826.984-1.015 1.28a.281.281 0 01-.134.3.344.344 0 01-.041.035c-.113.078-.264.074-.359-.023a.386.386 0 01-.066-.084c-.533.52-.583.508-.674.515a.285.285 0 01-.256-.157l-1.157-2.311c-.388.359-1.202 1.215-1.922 2.005a.284.284 0 01-.203.093c-.107.016-.152-.027-.207-.083-.184-.184-.169-.415.238-1.037-1.575 1.697-2.07 2.129-2.354 2.136h-.001zm8.063-28.532l-6.686 6.686c3.053-2.803 5.567-5.284 6.686-6.686zm-3.153-11.828c-1.922 1.208-6.354 6.225-10.679 11.219l.202-.221c4.317-4.701 8.818-9.31 10.477-10.998z"/></g><path d="M93.057 25.742c.211-.211 2.123-2.655 1.93-3.423a.56.56 0 00-.381-.404c-.4-.119-.851.164-2.068 1.026-.487.346-.993.704-1.305.86-.289.144-.795.445-1.359.782-.768.458-2.198 1.31-2.493 1.36-.323 0-1.06.287-7.209 3.899-.376.221-.647.381-.767.449-.764.436-6.432 4.111-7.028 4.51-.267.179-1.214.906-2.31 1.747-1.274.979-3.201 2.46-3.424 2.584-.139.046-.463.198-1.127.511-.908.428-2.152 1.014-2.854 1.269l-1.271.457c-1.949.698-3.591 1.288-3.91 1.442-.319.152-1.586 1.057-3.812 2.673l-.84.609c-.378.27-1.641 1.28-2.978 2.35-1.165.932-2.486 1.989-2.702 2.133-.292.195-1.095 1.109-2.906 3.221-.759.885-1.476 1.723-1.714 1.96-.392.392-1.086.9-1.758 1.394a44.87 44.87 0 00-1.016.76 78.73 78.73 0 00-.913.727c-1.241.994-3.316 2.658-4.257 3.207-1.234.721-5.563 2.781-6.26 2.981-.497.142-1.734.725-3.299 1.472-.564.271-1.064.51-1.362.643-1.028.455-4.728 3.008-5.339 3.519-.592.493-3.066 2.144-3.744 2.433-.833.357-2.007.842-2.572 1.029-.034.012-.25.066-1.179.066-1.178 0-2.694-.09-2.709-.092a.482.482 0 00-.304.082c-.328.219-1.223.99-1.584 1.475-.032.042-.05.052-.177.095-.313.104-.664.271-.849.896l-.029.1c-.156.523-.304 1.02-.008 1.415.279.374.773.374.936.374.884 0 3.851-.215 5.04-.539.432-.118.841-.137 1.236-.154.59-.027 1.2-.057 1.741-.441l.497-.358c.71-.515 1.682-1.219 2.5-1.71.957-.572 2.959-1.289 4.383-1.729 1.376-.422 5.596-2.422 6.69-3.078.446-.268 1.595-.572 2.706-.867 1.3-.346 2.644-.702 3.348-1.113.985-.574 2.279-1.029 3.319-1.395l.675-.239c.364-.132.993-.328 1.716-.554 1.598-.497 3.586-1.117 4.41-1.566 1.149-.626 3.638-1.584 4.52-1.51.438.045.624.217.904.479.239.223.512.478.956.644.727.272 1.225.295 1.658.222.689.204 2.699.335 4.803.335 1.818 0 3.689-.098 4.807-.329a1.427 1.427 0 01-.137.318c-.502.88-.917 3.406-1.061 4.79a87.148 87.148 0 01-.203 1.696c-.174 1.373-.368 2.928-.368 3.892 0 .239-.007.476-.013.702-.032 1.154-.063 2.25.768 2.917.855.688 1.852.821 2.812.946l.103.015c.339.045.628.06.862.06.464 0 .734-.059.72-.059h-.001c.025-.003 1.104-.117 1.98-.02.145.015.289.021.434.021.328 0 1.349-.049 1.672-.566.201-.002.441 0 .656.002 2.258.018 3.438-.014 3.486-.834.041-.681-.625-1.281-1.979-1.785l-.429-.153c-.691-.242-1.849-.647-2.48-1.042a20.347 20.347 0 00-.521-.315c-.588-.348-1.473-.87-1.602-1.215-.146-.394.455-1.882.743-2.599l.114-.284c.258-.642.808-1.422 1.339-2.173.282-.401.565-.803.813-1.191.42-.658.918-1.645 1.443-2.684.404-.797.812-1.604 1.182-2.246.819-1.438 1.131-2.596 1-3.748-.131-1.165-1.832-2.357-3.723-2.706.096-.313.188-.632.275-.944.082-.287.146-.51.188-.63.211-.635.547-2.062.542-3.116l.13-.902c.215.353.539.755.999 1.043.46.289 1.002.32 1.371.32.201 0 .402-.011.599-.021.166-.01.326-.018.478-.018.252 0 .366.028.416.055.146.072.349.266.546.453.445.424.948.902 1.598.902.151 0 .301-.027.445-.082 1.162-.438 1.26-1.275 1.26-2.029 0-.34-.039-.639-.078-.916-.043-.307-.078-.549-.035-.764.031-.159.119-.277.295-.509.173-.224.388-.503.603-.933.494-.987.696-2.654.681-3.471-.033-1.491-1.297-2.101-2.131-2.505-.154-.074-.298-.143-.416-.211-.769-.439-1.334-.689-2.43-.448-.416.092-.787-.077-1.176-.269-.258-.127-.523-.258-.818-.308a1.63 1.63 0 00-.588.026c.186-.324.382-.715.611-1.172.188-.379 1.273-1.04 1.992-1.478.633-.385 1.178-.717 1.465-1.005.677-.675 2.051-1.825 2.666-2.089.451-.192 1.723-1.159 3.761-2.727 1.122-.863 2.183-1.677 2.692-2.018 1.101-.733 2.322-1.524 3.055-1.837.195-.084.645-.068 1.074-.033.229.018.457.035.673.035.286 0 .706-.026 1.048-.253.74-.495 1.542-1.089 1.677-1.897.048-.283.011-.483-.06-.645a.073.073 0 01.024-.032zM59.682 56.287c0-.04 0-.083-.002-.121l-.009-.206c.099-.009.243-.017.451-.017.558 0 1.285.049 1.963.113a51.43 51.43 0 00-2.403.231zm-11.986-4.891c.235-.156 1.204-.929 2.771-2.183 1.268-1.015 2.578-2.063 2.934-2.317l.849-.613c.177-.128.401-.292.644-.466.125 1.234.431 4.121.652 4.855.286.941 1.082 3.657 2.146 4.492.438.346.771.472 1.018.508a3.295 3.295 0 00-.016.535c.006.149.018.418-.012.534-.1.055-.238.146-.395.256-.66.104-1.704.179-2.743-.148-1.698-.535-5.25-2.102-6.503-3.041a14.647 14.647 0 01-1.945-1.787c.287-.32.513-.559.6-.625zm-3.802 12.319c-.738.403-2.756 1.031-4.231 1.491a53.43 53.43 0 00-1.76.567l-.665.235c-1.079.38-2.422.853-3.49 1.474-.589.345-1.924.699-3.103 1.013-1.232.327-2.396.637-2.961.978-1.034.619-5.177 2.582-6.472 2.98-1.548.477-3.569 1.205-4.601 1.824-.854.512-1.847 1.23-2.571 1.756l-.491.354c-.304.219-.705.235-1.212.26-.428.021-.913.043-1.452.188-1.068.291-3.905.504-4.779.504a.852.852 0 01-.113-.006c.019-.129.083-.347.133-.513l.03-.102c.055-.187.064-.189.216-.24.172-.058.433-.146.652-.438.24-.319.88-.894 1.215-1.149.44.023 1.611.082 2.592.082 1.007 0 1.325-.062 1.49-.117.766-.256 2.342-.928 2.65-1.06.77-.33 3.329-2.032 3.987-2.582.645-.537 4.244-2.989 5.108-3.375.303-.135.812-.377 1.387-.651 1.134-.541 2.688-1.283 3.145-1.414.817-.233 5.292-2.381 6.485-3.078 1.003-.586 3.034-2.213 4.377-3.289.376-.301.69-.555.9-.719.309-.238.652-.489.995-.74.682-.502 1.381-1.016 1.829-1.453.9 1.141 3.587 4.527 4.703 5.701-1.363.29-3.178 1.075-3.993 1.519zm10.098-.042c.664-.571 1.053-1.36 1.4-2.089.271-.562.525-1.094.883-1.493 1.099-1.229 2.556-2.321 2.91-2.498a.782.782 0 00.315-.288c1.298-.162 3.147-.334 4.149-.31-.135.312-.28.625-.41.841-.408.68-.812 2.314-1.008 4.066-.07.646-.094 1.119-.109 1.496-1.14.381-5.768.452-8.13.275zm13.592 15.028c-.975-.11-2.137.012-2.254.029-.003 0-.479.099-1.287-.01l-.104-.013c-.863-.112-1.678-.222-2.32-.737-.447-.359-.424-1.177-.398-2.123.008-.236.014-.48.014-.729 0-.901.191-2.425.361-3.769.079-.627.153-1.225.205-1.718.17-1.631.586-3.789.936-4.401.324-.568.342-.987.371-1.687.016-.375.035-.856.109-1.534.194-1.763.596-3.203.872-3.665.328-.548.772-1.642.878-2.112a.517.517 0 00.115-.551c-.077-.184-.255-.304-.547-.304a1.424 1.424 0 01-.225-.015c.375-.512 1.153-1.491 1.892-1.871.746-.383 2.479-.758 3.344-.93-.103.67-.267 1.326-.396 1.715a18.96 18.96 0 00-.198.67c-.289 1.011-.968 3.378-1.479 3.966-.621.708-1.32 2.194-1.83 3.28-.129.273-.24.514-.33.689-.021.041-.028.096-.047.141a.471.471 0 00-.08.233c-.254.795-.258 1.866-.244 2.925l.006.682c0 .787-.274 1.673-.566 2.611-.171.549-.348 1.117-.467 1.674a29.36 29.36 0 01-.471 1.789c-.301 1.056-.586 2.053-.586 2.703 0 .969.108 1.342.129 1.406a.503.503 0 00.291.307c.08.031 1.979.766 3.104.766.6 0 1.316.297 1.844.583a2.867 2.867 0 01-.642 0zm4.782-19.721c.104.933-.166 1.901-.878 3.146-.375.656-.79 1.479-1.203 2.291-.492.975-1.002 1.98-1.396 2.6-.238.375-.513.765-.787 1.151-.563.799-1.146 1.626-1.447 2.377l-.112.279c-.586 1.452-1.017 2.618-.753 3.317.253.668 1.15 1.201 2.021 1.717.176.104.349.205.504.304.725.452 1.898.864 2.677 1.137l.409.146c.629.234 1.002.47 1.189.629-.576.09-1.771.08-2.343.076a14.269 14.269 0 00-1.017.009c-.543-.365-1.752-1.028-2.85-1.028-.673 0-1.857-.375-2.49-.604a7.423 7.423 0 01-.045-.887c0-.514.277-1.488.547-2.435.182-.636.365-1.281.488-1.853.109-.513.279-1.06.443-1.588.3-.968.611-1.967.611-2.902l-.004-.692c-.012-.859-.021-1.806.135-2.449l.021-.006c.999-.208 1.857-.413 2.268-.82a.499.499 0 000-.701.5.5 0 00-.699 0c-.15.152-.65.298-1.112.408.459-.975 1.146-2.438 1.674-3.039.388-.441.763-1.377 1.113-2.445 1.706.273 2.977 1.321 3.036 1.862zm.43-17.143h.006c.151.025.343.119.542.218.461.228 1.123.507 1.829.349.75-.167 1.017-.063 1.724.34.139.079.302.158.479.244.257.125.493.246.704.376-.001.032-.007.055.004.101.147.632.521 2.298-.731 3.238-1.254.94-3.134 1.254-3.134 1.254s1.044 1.358 0 1.712c-.724.246-2.036.151-2.782.069a2.04 2.04 0 01-.09-.219.49.49 0 00-.107-.183l-.416-.459a.496.496 0 00-.856.263l-.139.987c-.523.391-1.305.874-1.879.79-.939-.14-2.193-.245-2.193-1.603s.312-2.716 1.254-3.656c.215-.216.467-.407.725-.577l-.064.487c.018.002.148.02.348.02.487 0 1.366-.102 1.908-.765.373-.455.358-.866.348-1.165-.01-.311-.019-.535.457-.982.076-.071.146-.129.211-.185a.489.489 0 00.291-.063c.41-.245 1.154-.591 1.561-.591zm19.559-16.794c-.201.202-.573.575-.234 1.109 0 0 .006.027-.006.1-.075.453-.84.963-1.25 1.237-.154.103-.631.092-1.096.055-.604-.048-1.166-.05-1.541.111-.804.343-2.02 1.127-3.213 1.923-.537.358-1.611 1.183-2.748 2.056-1.34 1.032-3.178 2.444-3.547 2.602-.838.359-2.352 1.674-2.975 2.298-.205.205-.752.538-1.28.86-1.006.613-2.048 1.247-2.362 1.88-.373.745-.694 1.388-.955 1.648a3.31 3.31 0 00-.4.502 4.054 4.054 0 00-.697.531c-.74.697-.783 1.22-.766 1.737.009.236.01.335-.122.498-.935-.021-3.368-.121-4.453-.622-.896-.414-2.078-.993-2.787-1.343l1.075-.386c.744-.271 2.011-.867 2.938-1.303.51-.24.903-.428 1.021-.468.209-.069.694-.418 3.714-2.737 1.035-.796 2.014-1.548 2.254-1.708.645-.43 6.262-4.069 6.971-4.475.121-.069.396-.231.777-.455 4.092-2.404 6.37-3.671 6.708-3.763.409 0 1.142-.393 3-1.5.538-.32 1.021-.609 1.295-.747.38-.189.892-.553 1.435-.937l.379-.269c-.377.607-.858 1.292-1.135 1.566z" fill="#8c8c8c"/><path d="M70.776 50.746s-.208-.712.193-1.013c.249-.187.332-.134.718-.062s1.094.125 1.828.062c.679-.058.953-.203 1.045-.531.133-.473-.409-.964-.409-1.157s.362-.217.916-.362 1.156-.41 1.855-.795.78-.577 1.015-1.124c.226-.527.241-1.185.191-1.793s-.218-.699.096-1.012.41-.482.627-.362.619.445.836.854.444.875.203 2.562-.701 2.344-1.015 2.826-.479.497-.454.955.14 1.165.092 1.672-.05 1.089-.701 1.547-1.229.452-1.688.234-.744-.455-.985-.769-.451-.431-.686-.478c-.411-.082-.467-.023-1.094 0s-1.023.017-1.578-.297-.644-.499-.788-.644l-.217-.313z" fill="#6f6f6f"/><g fill="#7c7c7c"><path d="M78.176 47.145a.283.283 0 01-.2-.083c-.127-.126-.215-.214.447-2.076a.283.283 0 01-.056-.444l.385-.384a.282.282 0 01.353-.039.284.284 0 01.113.337 47.397 47.397 0 00-.518 1.48l.486-.486a.283.283 0 11.4.401l-1.211 1.21a.276.276 0 01-.199.084zm-4.628 4.511a.279.279 0 01-.2-.083c-.342-.341.044-.894 2.427-3.476.15-.163.307-.332.454-.494a.287.287 0 01.079-.249l.706-.706a.284.284 0 01.4 0c.217.216.197.287-.811 1.385a.293.293 0 01.197.085.283.283 0 01-.11.469c-.281.212-1.701 1.669-2.937 2.979a.281.281 0 01-.205.09z"/><path d="M76.064 53.629a.29.29 0 01-.204-.084c-.154-.154-.154-.154.445-1.427l.099-.211c-.759.774-.828.778-.934.771a.29.29 0 01-.204-.085.283.283 0 01-.01-.39l.756-.839c-.009-.014-.018-.028-.025-.043a.284.284 0 01.032-.3 82.9 82.9 0 001.917-2.514 92.683 92.683 0 00-2.889 3.099.287.287 0 01-.274.088l-2.685-.615c-.534.55-.542.55-.669.551h-.003a.283.283 0 01-.272-.206l-.036-.03a.285.285 0 01-.001-.401c.315-.316.492-.494.603-.593l.001-.002c.139-.126.168-.126.235-.126a.286.286 0 01.282.259l2.509.574c3.786-4.229 4.194-4.241 4.329-4.245a.41.41 0 01.236.092c.12.12.23.23-.422 1.208a7.35 7.35 0 01.211-.207l.055-.061.006.005c.188-.166.232-.137.361-.051a.285.285 0 01.053.426l-1.97 2.183c.044.141-.083.425-.638 1.605a.283.283 0 01.346.44c-1.036 1.124-1.099 1.126-1.234 1.128l-.006.001z"/></g><path d="M70.578 52.5s.025-.754.052-1.025.198-.584.104-.818-.25-.516-.531-.531-.25-.125-.531.062-.719.484-1.078.594-.953.094-1.531-.078c-.734-.219-1.031-.438-1.188-.906s-.078-1.328.141-2.234c.199-.826.688-1.406.844-1.625s.469-.531.797-.781.578-.234 1.062-.484.444-.482.444-.482-1.507-.034-2.257-.159-1.672-.234-2.531-.656-1.578-.734-2.172-1.047-1.375-.797-1.375-.797-1.703.609-2.156.781-1.016.344-1.281.484-2.625 1.844-2.625 1.844.031 1.578.25 3.219.312 2.484.672 3.609.562 1.734.891 2.328.516.953.859 1.297.719.469.969.562.844.25 1.469.312c.452.045 2.014.082 2.21.088s.853.037 1.274-.072.656-.234.891-.547.906-1.109 1.328-1.469.766-.547 1.484-.766 1.266-.344 1.703-.422l1.812-.281z" fill="#848484"/><g fill="#939393"><path d="M64.369 54.429a.324.324 0 01-.216-.087.283.283 0 01.139-.478c.127-.107.434-.461.643-.702.615-.707.752-.847.94-.854a.312.312 0 01.223.088c.11.109.125.124-.011.693l.789-.802c1.999-2.031 1.999-2.031 2.151-2.032h.001c.017 0 .032.001.047.004.61-.623.617-.63.764-.619.076 0 .15.031.203.085.101.101.11.26.023.373l-.757.979c.042.052.062.121.077.422 1.957-1.983 1.995-1.972 2.111-1.988l-.001.284-.203.197.203-.197.173.224c-.12.102-1.499 1.492-2.34 2.346a.284.284 0 01-.486-.191l-.01-.284-.694.694a.285.285 0 01-.388.013.285.285 0 01-.079-.31l-.393.399c-1.547 1.572-1.547 1.572-1.685 1.572-.104-.016-.152-.03-.207-.087-.105-.111-.116-.122.021-.69l-.046.053c-.635.731-.79.889-.985.896l-.007-.001z"/><path d="M58.103 56.718a.323.323 0 01-.217-.089c-.386-.386.234-1.561 1.347-3.073-.315.3-.5.41-.646.416a.507.507 0 01-.247-.096.282.282 0 01-.022-.375c1.926-2.457 4.641-5.985 6.269-8.221-2.438 2.437-6.411 6.413-6.469 6.469a.279.279 0 01-.2.083.265.265 0 01-.063-.007c-1.347 1.336-2.453 2.309-2.834 2.32-.092-.009-.207-.034-.278-.106-.459-.458 1.161-3.152 4.822-8.024-2.921 3.164-3.771 3.967-4.158 3.975-.046-.009-.192-.042-.247-.097a.283.283 0 01-.057-.32l2.694-5.791-2.447 2.447a.284.284 0 01-.4 0 .311.311 0 01-.087-.212c.002-.176.104-.285.807-.964a.95.95 0 01.032-.031.283.283 0 01.077-.258l1.023-1.023a.285.285 0 01.3-.065l1.429-1.428a.284.284 0 01.457.32l-2.929 6.294c.953-.904 2.593-2.688 3.782-3.983 2.546-2.771 2.791-2.993 3.026-2.998.067-.021.162.032.218.086a.283.283 0 01.022.376c-3.613 4.602-7.312 9.72-7.854 11.1.301-.206.779-.63 1.385-1.211a.676.676 0 01.098-.181l-.017-.017.122-.122c.298-.369.966-1.057 2.328-2.446a77.724 77.724 0 012.108-2.152c.473-.484.933-.958 1.337-1.379.48-.532.96-1.068 1.431-1.599a.279.279 0 01.203-.095.29.29 0 01.173.052l.612-.574a.282.282 0 01.346-.032c.872-.863.901-.837 1.068-.669.18.18.364.365-3.828 5.859 1.923-2.198 3.17-3.489 3.772-3.511a.43.43 0 01.334.125.284.284 0 01.004.397c-3.886 4.041-7.785 8.581-8.362 10.009 1.11-.979 4.32-4.331 6.355-6.506a.285.285 0 01.484.259 209.941 209.941 0 00-.811 3.577l1.596-1.595a.28.28 0 01.315-.059l.876-.897a.283.283 0 11.406.394c-3.968 4.077-4.038 4.078-4.192 4.079h-.002a.285.285 0 01-.202-.084c-.159-.159-.244-.243.496-1.064.019-.332.189-1.156.724-3.451-5.792 6.159-6.162 6.165-6.306 6.168h-.003z"/></g><path d="M46.297 51.344l-1.891 2.172c-.407.469-1.719 1.953-1.719 1.953s.203.75 1.094 1.844 2.484 3.125 2.938 3.656.891.875 1.188 1.281.453.891.453.891.219-.094.625-.016.422.141.672.375.453.469.781.625.594.281.922.328.688.125.953.031.875-.281 1.328-.578 1.156-1.094 1.344-1.484.641-1.422 1.078-1.984.938-1.078 1.422-1.5.893-.78 1.297-1.062.688-.359.781-.594.119-.994.119-.994-.229.119-.588.244-.547.406-1.047.453-1.266.188-2.141-.078-1.953-.641-3.219-1.219-1.979-.871-2.812-1.375-2.047-1.594-2.547-2.062-1.031-.907-1.031-.907z" fill="#848484"/><path d="M49.035 65.205a.28.28 0 01-.2-.083c-.277-.276-.21-.43 2.445-3.503.361-.419.771-.893 1.18-1.373-4.084 4.26-4.4 4.265-4.517 4.267a.31.31 0 01-.222-.089.368.368 0 01-.093-.23c0-.266.42-.795 2.002-2.409-.004-.186.179-.577.932-1.634a6.59 6.59 0 01-.745.608l-.293.294a.29.29 0 01-.401 0 .436.436 0 01-.101-.261.372.372 0 01.024-.11c-.028-.235.107-.86.797-2.962l-3.751 3.751a.283.283 0 01-.401 0c-.214-.214-.218-.218 1.224-2.413.31-.472.713-1.085 1.07-1.647l-1.316 1.315a.255.255 0 01-.202.083.284.284 0 01-.201-.084c-.121-.123-.138-.139.302-3.199-3.017 3.1-3.088 3.1-3.233 3.101a.285.285 0 01-.239-.44 186.03 186.03 0 003.019-4.733l-.666.665a.283.283 0 11-.401-.4l2.011-2.011a.283.283 0 01.401 0c.174.175.307.308-2.481 4.628.611-.62 1.27-1.294 1.79-1.83a.284.284 0 01.485.237c-.13.904-.312 2.2-.418 3.016l2.071-2.071a.29.29 0 01.401 0c.244.244.221.426-1.919 3.683l-.006.01 2.909-2.909a.284.284 0 01.47.291 84.082 84.082 0 00-.898 2.805c1.093-1.224 3.016-3.007 4.329-4.193a.284.284 0 01.407.394c-.151.179-.327.385-.521.61a.284.284 0 01-.061.182 159.8 159.8 0 00-1.561 2.012c.921-.937 1.499-1.412 1.727-1.419.055-.009.189.039.246.095a.254.254 0 01.041.055l.371-.396c.054-.059.128-.099.207-.09.075 0 .147.029.2.083.352.352-.077 1.049-2.666 4.076l2.309-2.308a.282.282 0 01.4 0c.127.127.269.268-.739 2.55 1.271-1.3 1.279-1.3 1.428-1.301l.003.284-.2.2.2-.2.153.235c-.115.09-.92.913-1.452 1.457-.925.947-.933.957-1.052.94a.283.283 0 01-.257-.403c.42-.899.852-1.877 1.132-2.578l-5.271 5.271a.292.292 0 01-.202.081z" fill="#939393"/></svg>