<svg viewBox="0 0 48 48" xmlns="http://www.w3.org/2000/svg"><path d="M39 46a7 7 0 000-14h-5v14h5zM1.5 25.5h14v14h-14" fill="#9d91bf"/><path d="M26 14H6a3 3 0 01-3-3V3a3 3 0 013-3h20a3 3 0 013 3v8a3 3 0 01-3 3zM7 10h18V4H7v6z" fill="#4c368b"/><path d="M28 48H3a3 3 0 01-3-3V22.88a6 6 0 014.1-5.69l1.9-.63V12h4v6a2 2 0 01-1.37 1.9L5.37 21A2 2 0 004 22.88V44h24v4zm4-15h-4V22.88A2 2 0 0026.63 21l-3.26-1.1A2 2 0 0122 18v-6h4v4.56l1.9.63a6 6 0 014.1 5.69V33z" fill="#4c368b"/><path d="M39 48H29a9 9 0 010-18h10a9 9 0 010 18zM29 34a5 5 0 000 10h10a5 5 0 000-10H29z" fill="#4c368b"/><path fill="none" d="M0 0h48v48H0z"/></svg>