<svg xmlns="http://www.w3.org/2000/svg" viewBox="0 0 100 1000"><path fill="#4c368b" d="M0 0h100v1000H0z"/><circle fill="#4c368b" cx="50" r="50"/><g fill="#503a8e"><circle cy="50" r="50"/><circle cx="100" cy="50" r="50"/></g><circle fill="#543f90" cx="50" cy="100" r="50"/><g fill="#584393"><circle cy="150" r="50"/><circle cx="100" cy="150" r="50"/></g><circle fill="#5c4796" cx="50" cy="200" r="50"/><g fill="#604c98"><circle cy="250" r="50"/><circle cx="100" cy="250" r="50"/></g><circle fill="#64509b" cx="50" cy="300" r="50"/><g fill="#68559e"><circle cy="350" r="50"/><circle cx="100" cy="350" r="50"/></g><circle fill="#6c59a0" cx="50" cy="400" r="50"/><g fill="#705ea3"><circle cy="450" r="50"/><circle cx="100" cy="450" r="50"/></g><circle fill="#7462a5" cx="50" cy="500" r="50"/><g fill="#7867a8"><circle cy="550" r="50"/><circle cx="100" cy="550" r="50"/></g><circle fill="#7c6bab" cx="50" cy="600" r="50"/><g fill="#8070ad"><circle cy="650" r="50"/><circle cx="100" cy="650" r="50"/></g><circle fill="#8474b0" cx="50" cy="700" r="50"/><g fill="#8879b2"><circle cy="750" r="50"/><circle cx="100" cy="750" r="50"/></g><circle fill="#8c7db5" cx="50" cy="800" r="50"/><g fill="#9082b7"><circle cy="850" r="50"/><circle cx="100" cy="850" r="50"/></g><circle fill="#9487ba" cx="50" cy="900" r="50"/><g fill="#988bbc"><circle cy="950" r="50"/><circle cx="100" cy="950" r="50"/></g><circle fill="#9c90bf" cx="50" cy="1000" r="50"/></svg>