<svg fill="#4c368b" height="512" width="512" xmlns="http://www.w3.org/2000/svg"><path d="M355.414 68.2H72.979l7.227 41.272c7.76 44.321 41.838 78.145 84.524 86.656 10.603 24.363 30.766 43.605 55.766 52.969 1.067 13.227 10.77 24.009 23.466 26.709v56.714c-13.134 2.837-23.038 14.331-23.453 28.214h-35.93c-6.431 0-11.645 5.214-11.645 11.645V443.8h166.131v-63.238c0-10.95-8.877-19.827-19.827-19.827H291.49c-.414-13.883-10.318-25.377-23.452-28.214v-56.757c12.575-2.763 22.171-13.463 23.265-26.587 25.094-9.335 45.336-28.618 55.967-53.048 42.687-8.511 76.764-42.334 84.524-86.656l7.227-41.272h-83.607zm-61.779 343.673a7.283 7.283 0 01-7.283 7.283h-60.704a7.283 7.283 0 01-7.282-7.283v-20.572a7.284 7.284 0 017.282-7.283h60.704a7.284 7.284 0 017.283 7.283v20.572zM97.937 106.368L94.406 86.2h62.179v70.713c0 6.511.637 12.873 1.844 19.03a89.1 89.1 0 01-60.492-69.575zm200.918 29.029l-15.364 14.977a5.503 5.503 0 00-1.583 4.871l3.627 21.147c.771 4.495-3.946 7.922-7.983 5.8l-18.991-9.985a5.507 5.507 0 00-5.121 0l-18.992 9.985c-4.036 2.122-8.754-1.306-7.982-5.8l3.627-21.147a5.505 5.505 0 00-1.583-4.871l-15.364-14.977c-3.266-3.183-1.464-8.729 3.049-9.385l21.233-3.085a5.504 5.504 0 004.144-3.01l9.496-19.241c2.018-4.089 7.85-4.089 9.867 0l9.496 19.241a5.504 5.504 0 004.143 3.01l21.234 3.085c4.511.656 6.313 6.202 3.047 9.385zm115.208-29.029a89.103 89.103 0 01-60.493 69.576 98.862 98.862 0 001.844-19.031V86.2h62.18l-3.531 20.168z"/></svg>