<svg height="512" width="512" xmlns="http://www.w3.org/2000/svg"><path fill="#4c368b" d="M426.34 444.45l-9.149 9.149v-18.298zm23.359-9.22v18.449l-9.218-9.229zm-2 30.579c-2.771 5.03-8.109 8.45-14.239 8.45-6.16 0-11.53-3.439-14.301-8.49l14.25-14.25 14.29 14.29zm2-45.439v.721l-16.29 16.29-16.218-16.221v-.86l16.218-16.22zm-94.449 45.42c-2.771 5.04-8.12 8.471-14.261 8.471-6.149 0-11.51-3.431-14.279-8.471l14.271-14.271 14.269 14.271zm-21.341-21.34l-9.189 9.189V435.26zm23.331-9.19v18.379l-9.19-9.189zm0-14.93v.79l-16.259 16.261-16.261-16.261v-.79l16.261-16.25z"/><path d="M440.96 258.2V110.84c0-48.569-39.521-88.09-88.101-88.09-16.939 0-32.78 4.811-46.229 13.141-13.45-8.33-29.29-13.141-46.229-13.141-48.581 0-88.101 39.521-88.101 88.09v308.41c0 10.95-3.23 21.16-8.771 29.74a54.659 54.659 0 01-8.77-29.74V142.87c0-29.63-24.1-53.729-53.73-53.729-29.63 0-53.729 24.1-53.729 53.729v276.38c0 38.601 31.4 70.011 70 70.011 17.71 0 33.89-6.63 46.229-17.511 12.351 10.881 28.53 17.511 46.24 17.511 38.601 0 70-31.41 70-70.011V110.84c0-22.779 10.48-43.149 26.86-56.569 16.38 13.42 26.859 33.79 26.859 56.569V258.2c-13.63 3.37-23.771 15.7-23.771 30.35v169.46c0 17.229 14.029 31.25 31.271 31.25 17.229 0 31.25-14.021 31.25-31.25V288.56c0-14.659-10.13-26.989-23.75-30.359V110.84c0-25.76-11.12-48.97-28.8-65.1a72.563 72.563 0 0133.17-7.99c40.311 0 73.1 32.79 73.1 73.09V258.2c-13.63 3.37-23.77 15.689-23.77 30.35v169.46c0 17.229 14.029 31.25 31.27 31.25 17.23 0 31.24-14.021 31.24-31.25V288.56c.001-14.66-10.119-26.99-23.738-30.36zM117.3 474.26c-30.33 0-55-24.681-55-55.011V142.87c0-21.35 17.37-38.729 38.729-38.729 21.36 0 38.73 17.38 38.73 38.729v276.38c0 15.5 5.07 29.841 13.64 41.45-9.669 8.431-22.299 13.56-36.099 13.56zm147.47-363.42v308.41c0 30.33-24.68 55.011-55 55.011-13.81 0-26.43-5.13-36.1-13.561 8.56-11.609 13.63-25.95 13.63-41.45V110.84c0-40.3 32.79-73.09 73.09-73.09a72.624 72.624 0 0133.181 7.99c-17.691 16.13-28.801 39.34-28.801 65.1zm59.95 182.089l9.189 9.181-9.189 9.188v-18.369zm0 47.441l9.189 9.189-9.189 9.189V340.37zm0 47.45l9.189 9.18-9.189 9.19v-18.37zm0 47.44l9.189 9.189-9.189 9.189V435.26zm16.27 39c-6.149 0-11.51-3.431-14.279-8.471l14.271-14.271 14.27 14.271c-2.771 5.041-8.122 8.471-14.262 8.471zm16.25-20.621l-9.189-9.189 9.189-9.189v18.378zm0-32.519l-16.26 16.261-16.261-16.261v-.79l16.261-16.25 16.26 16.25v.79zm0-14.93l-9.189-9.182 9.189-9.188v18.37zm0-32.511l-16.26 16.261-16.261-16.261v-.79l16.261-16.261 16.26 16.261v.79zm0-14.929l-9.189-9.189 9.189-9.189v18.378zm0-32.52l-16.26 16.26-16.261-16.26v-.79l16.261-16.25 16.26 16.25v.79zm0-14.93l-9.189-9.18 9.189-9.189V311.3zm-1.99-30.531l-14.27 14.271-14.271-14.271c2.76-5.05 8.13-8.489 14.279-8.489 6.142 0 11.502 3.439 14.262 8.489zm78.21-8.489c6.13 0 11.479 3.43 14.25 8.47l-14.301 14.29-14.25-14.25c2.761-5.06 8.13-8.51 14.301-8.51zm-16.269 20.68l9.149 9.15-9.149 9.159V292.96zm0 47.45l9.149 9.149-9.149 9.149V340.41zm0 47.439l9.149 9.149-9.149 9.16v-18.309zm0 47.452l9.149 9.149-9.149 9.149v-18.298zm16.269 38.959c-6.16 0-11.53-3.439-14.301-8.49l14.25-14.25 14.29 14.29c-2.769 5.031-8.109 8.45-14.239 8.45zm16.239-20.581l-9.22-9.229 9.22-9.22v18.449zm0-32.588l-16.29 16.29-16.22-16.221v-.86l16.22-16.22 16.29 16.29v.721zm0-14.861l-9.22-9.23 9.22-9.22v18.45zm0-32.591l-16.29 16.301-16.22-16.23v-.859l16.22-16.221 16.29 16.29v.719zm0-14.859l-9.22-9.221 9.22-9.229v18.45zm0-32.58l-16.29 16.29-16.22-16.221v-.859l16.22-16.22 16.29 16.29v.72zm0-14.86l-9.22-9.229 9.22-9.221v18.45z" fill="#4c368b"/><path fill="#4c368b" d="M426.34 302.11l-9.149 9.159V292.96zm23.359-9.221v18.451l-9.218-9.23zm0 47.441v18.45l-9.218-9.221zm-23.359 9.229l-9.149 9.151v-18.3zm23.359 38.221v18.45l-9.218-9.23zM426.34 397l-9.149 9.16v-18.311zm23.359-24.08v.719l-16.29 16.301-16.218-16.23v-.861l16.218-16.219zm0-47.44v.72l-16.29 16.29-16.218-16.221v-.859l16.218-16.22zm-1.989-44.73l-14.301 14.29-14.25-14.25c2.761-5.06 8.13-8.51 14.301-8.51 6.13 0 11.481 3.43 14.25 8.47zm-90.47 107.07v18.37l-9.19-9.18zM333.909 397l-9.189 9.19v-18.37zm0-47.441l-9.189 9.191v-18.38zm23.331 23.33v.79l-16.259 16.261-16.261-16.261v-.79l16.261-16.259zm0-32.519v18.38l-9.19-9.191zm0-47.441V311.3l-9.19-9.18zm-23.331 9.181l-9.189 9.19v-18.371zm23.331 23.33v.79l-16.259 16.26-16.261-16.26v-.79l9.811-9.801 6.45-6.449zm-1.99-44.671l-6.141 6.141-8.13 8.13-14.271-14.271a16.443 16.443 0 018.68-7.5 16.271 16.271 0 015.601-.989c6.141 0 11.501 3.439 14.261 8.489z"/><path d="M340.981 295.04l-14.271-14.271a16.443 16.443 0 018.68-7.5l5.591 21.771zm0 156.479L326.71 465.79a16.443 16.443 0 008.68 7.5l5.591-21.771zm0-109.029l-16.261-16.26v-.79l9.811-9.801zm0 47.45l-16.261-16.26v-.79l9.811-9.8zm0 47.441L324.72 421.12v-.79l9.811-9.801z" opacity=".3"/><path fill="#FFF" opacity=".7" d="M334.531 315.639l22.709 9.801-16.259-16.25zm0 47.44l22.709 9.801-16.259-16.25zm0 47.45l22.709 9.801-16.259-16.25zm20.719-129.76l-6.141 6.141c-3.32-9.891-13.721-13.641-13.721-13.641a16.271 16.271 0 015.601-.989c6.141 0 11.501 3.439 14.261 8.489zm0 185.001l-6.141-6.141c-3.32 9.891-13.721 13.641-13.721 13.641 1.75.64 3.641.989 5.601.989 6.141.001 11.501-3.439 14.261-8.489z"/><path opacity=".3" d="M333.909 302.11l-9.189 9.19v-8.5zm0 47.445l-9.189 9.19v-8.5zm0 47.45l-9.189 9.189v-8.5zm0 47.45l-9.189 9.189v-8.5zm14.14-142.345l9.191 9.19v-8.5zm0 47.445l9.191 9.19v-8.5zm0 47.45l9.191 9.189v-8.5zm0 47.45l9.191 9.189v-8.5zm85.397-149.415l14.271-14.271a16.441 16.441 0 00-8.681-7.5l-5.59 21.771zm0 156.479l14.271 14.271a16.441 16.441 0 01-8.681 7.5l-5.59-21.771zm0-109.029l16.259-16.26v-.79l-9.809-9.801zm0 47.45l16.259-16.26v-.79l-9.809-9.8zm0 47.441l16.259-16.261v-.79l-9.809-9.801z"/><path fill="#FFF" opacity=".7" d="M439.896 315.639l-22.71 9.801 16.26-16.25zm0 47.44l-22.71 9.801 16.26-16.25zm0 47.45l-22.71 9.801 16.26-16.25zm-20.72-129.76l6.14 6.141c3.32-9.891 13.721-13.641 13.721-13.641a16.271 16.271 0 00-5.601-.989c-6.14 0-11.5 3.439-14.26 8.489zm0 185.001l6.14-6.141c3.32 9.891 13.721 13.641 13.721 13.641-1.75.64-3.641.989-5.601.989-6.14.001-11.5-3.439-14.26-8.489z"/><path opacity=".3" d="M440.516 302.11l9.189 9.19v-8.5zm0 47.445l9.189 9.19v-8.5zm0 47.45l9.189 9.189v-8.5zm0 47.45l9.189 9.189v-8.5zM426.377 302.11l-9.19 9.19v-8.5zm0 47.445l-9.19 9.19v-8.5zm0 47.45l-9.19 9.189v-8.5zm0 47.45l-9.19 9.189v-8.5z"/></svg>